<?xml version="1.0" encoding="UTF-8"?>
<svg viewBox="0 0 100 100" version="1.1" xmlns="http://www.w3.org/2000/svg" xmlns:xlink="http://www.w3.org/1999/xlink">
  <style>
    @media (prefers-color-scheme: dark) {
      g path {
        fill: #efefef;
      }
    }
  </style>
  <g fill="#101010">
    <path d="M50,100 C22,100 0,78 0,50 C0,22 22.5,0 50,0 C50,0 50,6 50,6 C26,6 6,26 6,50 C6,74 26,94 50,94 C50,94 50,100 50,100 Z"></path>
    <path d="M50,25 C50,25 50,75 50,75 C36,75 25,64 25,50 C25,36 36,25 50,25 Z"></path>
    <path d="M50,-6e-12 C78,-6e-12 100,22 100,50 C100,78 78,100 50,100 L50,75 C64,75 75,64 75,50 C75,36 64,25 50,25 L50,-6e-12 Z"></path>
  </g>
</svg>
