<?xml version="1.0" encoding="UTF-8"?>
<svg viewBox="0 0 1024 1024" version="1.1" xmlns="http://www.w3.org/2000/svg" xmlns:xlink="http://www.w3.org/1999/xlink">
	<title>Vino Rodrigues</title>
	<defs>
		<filter x="-2.9%" y="-2.7%" width="105.8%" height="105.3%" filterUnits="objectBoundingBox" id="shadow">
			<feOffset dx="4" dy="4" in="SourceAlpha" result="soo"></feOffset>
			<feGaussianBlur stdDeviation="4" in="soo" result="sbo"></feGaussianBlur>
			<feColorMatrix values="0 0 0 0 0   0 0 0 0 0   0 0 0 0 0  0 0 0 0.5 0" type="matrix" in="sbo" result="smo"></feColorMatrix>
			<feMerge>
				<feMergeNode in="smo"></feMergeNode>
				<feMergeNode in="SourceGraphic"></feMergeNode>
			</feMerge>
		</filter>
	</defs>
	<rect id="backdrop" fill="#005599" x="0" y="0" width="1024" height="1024" visibility="hidden"></rect>
	<g id="face" stroke="none" stroke-width="1" fill="none" fill-rule="evenodd" filter="url(#shadow)">
		<g id="ears" transform="translate(118.000000, 483.000000)">
			<g id="el" transform="translate(704.000000, 0.000000)">
				<path d="M27.1859379,6.05548611 C17.4659379,10.9834861 7.23193792,23.6554861 3.23693792,35.7114861 C2.34593792,38.3984861 1.18093792,46.3364861 0.646937921,53.3514861 C-0.578062079,69.4474861 0.062937921,126.739486 1.51393792,130.825486 C2.09893792,132.475486 2.81093792,137.875486 3.09493792,142.825486 C3.37793792,147.775486 4.04993792,153.400486 4.58693792,155.325486 C5.12393792,157.250486 5.80793792,161.750486 6.10793792,165.325486 C6.40793792,168.900486 7.11193792,173.850486 7.67293792,176.325486 C8.23393792,178.800486 9.34893792,183.975486 10.1499379,187.825486 C12.9829379,201.432486 16.8059379,217.749486 19.0799379,225.931486 C20.7379379,231.899486 24.3489379,239.325486 25.5919379,239.325486 C28.0629379,239.325486 42.6859379,220.496486 42.6859379,217.315486 C42.6859379,216.770486 43.0639379,216.325486 43.5249379,216.325486 C43.9869379,216.325486 44.9089379,215.313486 45.5739379,214.075486 C46.2389379,212.838486 47.8699379,210.025486 49.1979379,207.825486 C51.6509379,203.764486 54.0459379,199.612486 60.1599379,188.825486 C66.0329379,178.461486 80.7149379,149.325486 80.0629379,149.325486 C79.7209379,149.325486 79.8939379,148.762486 80.4479379,148.075486 C81.0019379,147.388486 81.7839379,145.250486 82.1859379,143.325486 C82.5879379,141.400486 83.3459379,139.292486 83.8689379,138.641486 C85.1849379,137.005486 82.7169379,94.7894861 81.0449379,90.3254861 C80.7359379,89.5004861 80.3429379,87.0254861 80.1699379,84.8254861 C79.9979379,82.6254861 79.1719379,76.5504861 78.3349379,71.3254861 C76.9489379,62.6734861 76.1459379,58.1924861 72.6889379,39.8254861 C72.0669379,36.5254861 71.1639379,32.9254861 70.6809379,31.8254861 C70.1979379,30.7254861 69.4979379,28.2504861 69.1269379,26.3254861 C68.7549379,24.4004861 68.1729379,22.3754861 67.8339379,21.8254861 C67.4939379,21.2754861 67.1879379,20.6004861 67.1519379,20.3254861 C66.9669379,18.8894861 65.2819379,14.3574861 63.5979379,10.7684861 C61.2339379,5.73048611 58.2939379,2.51148611 54.8399379,1.17948611 C51.4169379,-0.140513888 42.3709379,-0.424513888 39.4529379,0.695486112 C33.3449379,3.03948611 31.8269379,3.70248611 27.1859379,6.05548611 Z" id="e0" fill="#000000"></path>
				<path d="M29.9306641,22.0527344 C27.7143032,24.9047248 28.9833867,29.8782819 27.8569379,31.2099609 C24.5139379,35.1619609 20.2159379,37.0164861 18.9149379,41.3254861 C18.3339379,43.2504861 17.5709379,50.6754861 17.2199379,57.8254861 L16.5819379,70.8254861 L20.7969379,63.8254861 C29.1959379,49.8784861 35.3869379,43.3254861 40.1669379,43.3254861 C45.6859379,43.3254861 49.2009379,48.8444861 52.8239379,63.2024861 C55.4219379,73.4934861 55.2979379,77.6594861 52.3499379,79.2374861 C51.0649379,79.9254861 49.3769379,80.3424861 48.5999379,80.1644861 C46.6499379,79.7174861 39.0519379,84.3364861 33.9359379,89.0784861 L29.6859379,93.0184861 L29.6859379,106.016486 C29.6859379,117.339486 29.4499379,119.228486 27.8569379,120.670486 C25.3779379,122.914486 21.9709379,122.755486 20.4539379,120.325486 C19.7669379,119.225486 18.8629379,118.325486 18.4449379,118.325486 C16.8119379,118.325486 17.8249379,123.806486 20.6469379,130.235486 C24.4309379,138.858486 25.0999379,143.376486 23.6949379,150.825486 C21.8899379,160.400486 22.2479379,165.498486 26.0159379,183.825486 C29.0779379,198.718486 30.8389379,205.858486 31.6529379,206.682486 C32.6359379,207.676486 32.4719379,207.928486 44.9159379,186.325486 C57.7909379,163.976486 62.3139379,155.331486 66.3039379,145.449486 C71.3949379,132.842486 71.1919379,125.020486 64.5769379,78.8254861 C59.9689379,46.6484861 56.5689379,24.4599844 52.3499379,17.2089844 C50.3259379,13.7309844 45.9339379,13.6894861 41.8859379,15.3524861 C39.6965814,16.252182 32.9736038,18.1371107 29.9306641,22.0527344 Z" id="e1" fill="#FDE8DD"></path>
				<path d="M27,53.8190914 C26.175,55.0820914 24.984,56.6560914 24.353,57.3180914 C23.723,57.9790914 21.81,61.1370914 20.103,64.3360914 L17,70.1520914 C17.2286667,115.498758 17.8766667,140.016758 18.944,143.706091 C19.475,145.540091 20.19,150.940091 20.534,155.706091 C21.246,165.594091 21.751,167.892091 22.827,166.150091 C23.223,165.509091 23.576,168.352091 23.612,172.467091 C23.65,176.724091 24.178,180.448091 24.839,181.109091 C25.52,181.790091 26,181.853091 26,181.261091 C26,180.706091 28.137,178.026091 30.75,175.306091 C36.382,169.443091 44.053,154.461091 49.664,138.370091 L53.5,127.370091 L53.375,108.370091 C53.306,97.9200914 52.802,87.2320914 52.254,84.6200914 C51.706,82.0080914 51.64,79.8700914 52.106,79.8700914 C52.572,79.8700914 53.627,78.8420914 54.451,77.5860914 C56.057,75.1340914 55.694,71.5410914 52.627,59.5220914 C50.136,49.7580914 47.645,45.3560914 43.295,43.0280914 C40.822,41.7040914 40.27,41.6850914 37.468,42.8200914 C35.416,43.6520914 29.761,49.5940914 27,53.8190914 Z" id="e2" fill="#FCCFBD"></path>
				<path d="M20.781,146.5 C21.125,147.325 21.466,149.575 21.537,151.5 C21.609,153.425 21.762,157.813 21.877,161.25 C22.003,165.014 22.525,167.5 23.189,167.5 C23.931,167.5 24.088,165.822 23.669,162.377 C23.283,159.21 23.464,156.75 24.143,155.931 C24.747,155.203 25.307,151.546 25.387,147.804 C25.532,140.997 24.067,135.649 19.822,127.5 L18,124 L18.555,129.5 C19.91,142.93 20.192,145.087 20.781,146.5 Z" id="e3b" fill="#DA9E8E"></path>
				<path d="M21.701522,63.0163196 C19.544522,66.5913196 17.325522,69.8383196 16.770522,70.2323196 C15.450522,71.1693196 15.958522,110.38732 17.297522,110.84932 C17.827522,111.03332 18.261522,112.49532 18.261522,114.09932 C18.261522,115.70432 18.639522,117.01632 19.100522,117.01632 C19.562522,117.01632 20.453522,118.14132 21.079522,119.51632 C22.601522,122.85532 26.648522,122.88132 28.821522,119.56532 C30.128522,117.57032 30.364522,114.82132 30.094522,104.76032 L29.761522,92.4053196 L35.469522,87.5043196 C41.661522,82.1863196 47.795522,78.6103196 49.217522,79.4893196 C49.709522,79.7933196 51.270522,79.5133196 52.686522,78.8683196 C54.714522,77.9443196 55.261522,76.9763196 55.261522,74.3113196 C55.261522,70.2513196 52.609522,58.7553196 50.660522,54.3653196 C49.891522,52.6323196 49.261522,50.8743196 49.261522,50.4593196 C49.261522,50.0443196 48.113522,48.2003196 46.710522,46.3603196 C43.612522,42.2983196 39.137522,41.8863196 35.227522,45.3023196 C31.603522,48.4683196 26.240522,55.4913196 21.701522,63.0163196 Z" id="e3a" fill="#DA9E8E"></path>
				<path d="M19.8154506,68.1342774 C17.3974506,72.5012774 16.2804506,75.8862774 16.1044506,79.3812774 C15.7724506,85.9532774 16.2874506,94.8592774 16.8694506,92.6312774 C17.1214506,91.6682774 17.6914506,90.8812774 18.1374506,90.8812774 C19.6254506,90.8812774 20.3264506,95.2802774 20.8894506,108.145277 C21.4404506,120.761277 21.4764506,120.917277 23.9694506,121.543277 C25.7124506,121.980277 26.8644506,121.666277 27.6984506,120.525277 C29.6104506,117.911277 30.2294506,109.078277 29.1464506,99.8632774 C28.1854506,91.6802774 27.6284506,88.9972774 25.0974506,80.3812774 C23.9854506,76.5962774 24.1164506,76.0512774 27.5334506,70.2442774 C31.6384506,63.2662774 38.8184506,53.8812774 40.0514506,53.8812774 C41.0854506,53.8812774 43.4234506,61.0612774 45.6434506,71.0562774 C47.3854506,78.9002774 48.6714506,80.4952774 52.3214506,79.3362774 C54.8524506,78.5332774 54.7834506,72.5602774 52.1264506,62.4152774 C49.8504506,53.7282774 47.9744506,49.5052774 44.8894506,46.1312774 C42.3874506,43.3952774 40.5614506,43.3132774 36.8334506,45.7712774 C33.3354506,48.0782774 24.4734506,59.7222774 19.8154506,68.1342774 Z" id="e4" fill="#000000"></path>
			</g>
			<g id="er">
				<path d="M20.6614537,11.0358267 C18.9664537,14.3578267 14.2744537,30.6878267 13.7914537,31.7878267 C13.3084537,32.8878267 12.4054537,36.4878267 11.7834537,39.7878267 C8.32645371,58.1548267 7.52345371,62.6358267 6.13745371,71.2878267 C5.30045371,76.5128267 3.73645371,89.4628267 3.42745371,90.2878267 C2.75645371,92.0768267 0.851453711,113.800827 0.148453711,127.668827 C-0.172546289,134.007827 3.53445371,148.012827 3.51845371,148.287827 C3.50345371,148.562827 8.53445371,159.052827 9.15645371,160.732827 C10.2184537,163.602827 20.6144537,182.908827 25.5004537,191.083827 C26.7184537,193.120827 36.1964537,209.362827 37.3704537,211.287827 C50.7974537,233.316827 60.1514537,244.322827 63.0144537,241.459827 C65.6304537,238.843827 80.1514537,180.762827 80.6874537,178.287827 C83.9254537,163.338827 84.5564537,151.688827 84.9614537,99.2878267 L81.3574537,58.2878267 C77.0934537,43.2108267 72.8294537,33.3248267 64.5344537,19.2878267 C58.7544537,9.50782674 51.8514537,2.69082674 46.0124537,0.996826735 C40.7774537,-0.521173265 32.7374537,-0.273173265 29.0554537,1.52082674 C25.3904537,3.30682674 23.5294537,5.41682674 20.6614537,11.0358267 Z" id="er0" fill="#000000"></path>
				<path d="M20.2647968,70.1186488 C16.0137968,96.8946488 13.1467968,127.537649 14.2297968,134.618649 C15.0587968,140.041649 18.0957968,147.595649 24.4837968,160.118649 C31.2777968,173.436649 54.9547968,214.093649 55.9257968,214.108316 C56.3277968,214.113649 56.8507968,213.106649 57.0867968,211.868649 C57.3237968,210.630649 58.6927968,204.443649 60.1287968,198.118649 C66.3317968,170.796649 66.6337968,168.200649 67.7457968,132.689649 C68.5797968,106.054649 68.6737968,69.3466488 68.3627968,63.8686488 C68.0017968,57.5186488 66.8397968,52.5446488 63.3157968,42.2706488 C61.974404,38.3614925 59.6816836,38.6481065 58.4228516,35.5224609 C57.3177244,32.7784605 57.1967354,26.4311678 56.6637968,25.5686488 C55.5237968,23.7246488 51.9980625,18.7996488 48.6640625,16.5726488 C41.2510625,11.6226488 35.8757968,12.6666488 33.3167968,16.5726488 C29.9997968,21.6346488 24.1527968,45.6236488 20.2647968,70.1186488 Z" id="er1" fill="#FDE8DD"></path>
				<path d="M39.6959046,42.5030332 C35.4919046,45.1120332 30.3979046,58.3440332 29.2059046,69.7540332 C28.4799046,76.6980332 29.5839046,78.7980332 33.9599046,78.7980332 C36.5269046,78.7980332 36.7229046,79.0260332 35.8989046,81.0480332 C34.5049046,84.4710332 32.0339046,97.2440332 30.8279046,107.260033 C29.5399046,117.971033 30.6309046,126.070033 35.0789046,138.798033 C41.6949046,157.730033 47.6449046,168.956033 55.3889046,177.112033 C59.2029046,181.129033 61.8589046,184.803033 61.8589046,186.062033 C61.8589046,187.443033 62.2019046,187.855033 62.8299046,187.227033 C63.3629046,186.694033 63.9259046,183.566033 64.0799046,180.277033 C64.2389046,176.874033 64.9189046,173.857033 65.6589046,173.275033 C67.1789046,172.078033 68.7629046,143.461033 68.8219046,116.107033 C68.8419046,106.652033 69.2719046,98.6610332 69.7759046,98.3490332 C70.2929046,98.0300332 70.4889046,92.6470332 70.2259046,86.0400332 C69.6629046,71.8970332 69.0699046,67.5500332 67.8079046,68.3290332 C67.2859046,68.6520332 66.8589046,68.4690332 66.8589046,67.9230332 C66.8589046,66.5340332 55.6119046,49.9620332 52.1009046,46.1760332 C46.9499046,40.6220332 44.0919046,39.7760332 39.6959046,42.5030332" id="er2" fill="#FCCFBD"></path>
				<path d="M38.6371287,44.75 C35.8621287,47.914 33.5711287,53.367 31.1981287,62.447 C27.7141287,75.785 28.2191287,78.989 33.8111287,79.009 C37.3201287,79.022 45.5461287,83.968 50.3611287,88.96 L54.3611287,93.107 L54.3611287,106.006 C54.3611287,117.726 54.5441287,119.046 56.3611287,120.443 C59.2691287,122.678 62.1341287,121.929 63.7971287,118.5 L65.2511287,115.5 L66.1751287,119.332 C66.9781287,122.663 66.6921287,123.998 63.9961287,129.527 C58.2001287,141.415 58.1511287,147.197 63.6731287,167.399 C66.3661287,177.248 67.3121287,174.36 67.3221287,156.25 C67.3271287,147.863 67.6761287,141 68.0961287,141 C68.5171287,141 68.8611287,131.865 68.8611287,120.7 C68.8611287,109.535 69.2311287,99.972 69.6841287,99.45 C70.8931287,98.053 69.5831287,72.071 68.2601287,71.213 C67.6551287,70.821 66.5921287,69.375 65.8981287,68 C63.3071287,62.87 55.2241287,51.41 51.2821287,47.277 C47.9911287,43.825 46.5251287,43 43.6871287,43 C41.5901287,43 39.5521287,43.706 38.6371287,44.75" id="er3" fill="#DA9E8E"></path>
				<path d="M30.2775491,76.252 C30.9955491,78.123 35.7015491,79.089 36.8925491,77.61 C37.3845491,77 38.8015491,72 40.0425491,66.5 C42.3965491,56.07 43.5065491,53 44.9265491,53 C46.0975491,53 52.9195491,62.235 57.3155491,69.771 L60.9735491,76.042 L59.4335491,80.579 C56.8005491,88.335 55.0115491,99.803 55.0115491,108.933 C55.0115491,116.147 55.3335491,117.982 56.8405491,119.345 C59.0265491,121.324 61.3745491,121.472 62.8255491,119.724 C63.4195491,119.008 63.9035491,113.689 63.9285491,107.585 C63.9755491,96.145 64.6705491,90.329 66.0955491,89.448 C66.5675491,89.157 67.2395491,90.062 67.5905491,91.459 C68.8945491,96.655 69.5015491,93.706 69.1625491,83.82 C68.8165491,73.759 68.7585491,73.549 64.2545491,66.069 C55.7385491,51.928 47.9815491,43 44.2095491,43 C42.8325491,43 40.6115491,44.287 38.9845491,46.029 C34.7785491,50.532 28.6165491,71.922 30.2775491,76.252 Z" id="er4" fill="#000000"></path>
			</g>
		</g>
		<g id="face-o" transform="translate(175.343788, 135.000000)">
			<path d="M332.029259,823.804688 C117.593712,818.890625 13.4296499,719.447266 1.85152487,606.248047 C1.85152487,606.248047 -5.99417825,574.949219 10.6151967,512 C19.1894155,408.216797 10.6151967,366.712891 10.6151967,366.712891 C10.6151967,0 175.207946,0 339.258751,0 C503.309557,0 667.199181,0 667.199181,366.712891 C667.199181,366.712891 655.525353,432.841797 667.199181,512 C682.765587,566.455078 677.849572,606.248047 677.849572,606.248047 C663.167931,719.447266 559.216759,823.804688 332.029259,823.804688 Z" id="Path-0" fill="#000000"></path>
			<path d="M563.09249,753.87286 C509.296586,787.716031 433.309837,808.781493 332.211794,808.804095 C235.323494,806.552501 161.654668,784.676014 109.670584,750.423303 C52.8390335,712.976558 22.5047268,660.754237 16.7736747,604.721795 C16.7488548,604.479131 16.7245007,604.236443 16.7008668,603.99749 C16.4555429,602.830758 16.4141438,602.654823 16.4141438,602.654823 C16.4059466,602.61922 9.85225569,573.686859 25.1188286,515.826835 C25.190509,515.555167 25.2622938,515.284292 25.3343048,515.017785 C25.5149161,513.831189 25.5396188,513.533374 25.564266,513.235042 C33.3315787,419.21871 27.2305104,374.893937 25.6604662,365.586711 C25.8153355,216.864567 52.8962535,130.381291 97.4747854,80.6388811 C156.590921,14.6748642 245.14033,14.9592385 333.081755,14.9897364 L339.258751,14.9897364 L345.45992,14.9897364 C433.336526,14.9589652 521.619351,14.6736521 580.536742,80.5568574 C625.031175,130.311876 652.023502,216.859962 652.198045,365.250813 C650.464573,376.347749 641.370704,439.674088 652.359684,514.18845 C652.392976,514.414203 652.426416,514.639804 652.459119,514.859188 C652.659146,515.711762 652.718079,515.91707 652.776869,516.12273 C667.159699,566.437371 663.076836,603.412619 662.961439,604.414519 C655.53462,661.37678 623.730843,715.725082 563.09249,753.87286 Z" id="Path-FED" fill="#FDE8DD"></path>
			<path d="M77.619103,626.935547 C89.7519155,708.999023 193.981408,777.925781 240.27633,799.03418 C264.625939,807.501953 320.677697,811.285156 374.36715,807.489258 C403.133751,803.124023 437.97957,787.59544 457.39547,780.018555 C457.39547,780.018555 492.508751,768.032227 523.433556,748.856445 C569.540588,712.378444 587.000922,689.69787 600.052697,642.578125 C605.443322,592.669922 596.208947,550.799805 584.589806,531.208984 C559.268517,487.182617 542.206017,464.650391 537.863244,443.375 C537.863244,443.375 555.36422,354.253906 555.36422,354.253906 C555.36422,354.253906 575.578087,341.126953 575.578087,341.126953 C563.151268,315.9158 511.412072,158.235352 500.935509,143.798828 C494.5859,126.976562 461.500939,93.6816406 442.882775,84.0019531 C415.709923,65.4296875 384.272423,57.7353516 339.5,57.7353516 C269.946426,51.9568657 226.623986,75.9482422 202.95504,90.4335937 C202.95504,90.4335937 181.535119,102.333984 163.878869,136.535156 C137.631798,191.097656 122.473361,278.949113 118.543908,302.165039 C118.506409,302.165039 141.283165,449.433594 141.283165,449.433594 C108.484337,477.086914 93.7030874,503.131836 83.8456655,538.423828 C83.8456655,538.423828 72.275353,575.68457 77.619103,626.935547 Z" id="Path-FCB" fill="#FCCFBD"></path>
			<g id="shdw" transform="translate(84.656212, 307.852051)" fill="#DA9E8E">
				<path d="M1.42108547e-14,10.2339492 C29.2549328,36.9979492 43.8823992,50.9699492 43.8823992,52.1499492 C43.8823992,52.5326159 39.2168469,56.4775872 29.8857422,63.9848633 L40.3823992,78.0519492 C87.6607234,77.7070377 121.958224,79.607039 143.274902,83.7519531 C175.249919,89.9693244 174.077148,111.660645 174.077148,122.185547 C174.077148,122.185547 180.818848,120.182129 187.776367,105.173828 C192.414714,95.1682943 196.398926,85.711263 199.729004,76.8027344 L207.572266,48.5834961 L72.5183992,9.14794922 L1.42108547e-14,10.2339492 Z" id="Path"></path>
				<path d="M289.550293,40.6269531 L284.696289,42.9799805 C288.605624,58.489293 290.962958,67.7092826 291.768292,70.6399492 C294.244292,79.6529492 297.543778,88.7167744 303.995605,98.2504883 C310.447433,107.784202 320.603292,116.147949 322.565292,116.147949 C323.162292,116.147949 323.955292,114.119949 324.326292,111.640949 C325.394292,104.518949 330.864292,97.9329492 340.273292,92.4389492 C351.792292,85.7129492 364.80127,76.4887695 398.439453,75.5805664 C432.077637,74.6723633 465.765292,84.5489492 470.627292,90.1999492 C474.115292,94.2539492 475.507292,95.1999492 477.627292,94.9539492 C481.163524,93.2772826 480.858073,84.8167214 476.710938,69.5722656 L488.54541,62.7568359 L469.997292,46.4229492 L503,34.1743164 L427.429292,15.1009492 L329.392292,30.6889492 L302.022461,-2.84217094e-14 L289.550293,40.6269531 Z" id="Path"></path>
			</g>
			<g id="wrnkls" transform="translate(70.656212, 286.000000)" fill="#000000">
				<path d="M17.066,25.322 C8.114,33.539 6.62,36.11 9.436,38.447 C11.102,39.829 14.084,38.611 16.199,35.683 C21.056,28.96 41.21,14.029 54.812,7.077 C57.276,5.818 58.044,4.823 57.812,3.192 C57.255,-0.724 53.202,-0.029 43.987,5.563 C30.184,13.941 26.603,16.569 17.066,25.322 Z" id="Path"></path>
				<path d="M8.095,20.687 C1.841,27.273 -0.076,29.934 0.172,31.687 C0.379,33.145 1.283,34.112 2.617,34.302 C4.192,34.527 6.848,32.291 12.997,25.563 C17.542,20.59 23.677,14.917 26.63,12.957 C32.091,9.333 32.945,7.845 30.8,5.7 C28.94,3.84 27.616,4.214 21.773,8.25 C18.788,10.313 12.633,15.909 8.095,20.687 Z" id="Path"></path>
				<path d="M475.25,25.844 C481.937744,30.123291 497.351,44.809 499.296,47.715 C504.178,55.01 511.444,61.927 513.426,61.167 C516.044,60.162 515.211,56.866 511.154,52.178 C508.871338,48.3161621 498.247,36.489 492.345,31.115 C479.837,19.726 473.12,15.714 470.667,18.167 C468.809,20.024 470.408,22.703 475.25,25.844 Z" id="Path"></path>
				<path d="M503.667,34.167 C502.209,35.625 503.135,38.542 505.561,40.132 C510.165,43.149 518.194,54.626 521.033,62.25 C521.938,64.683 522.849,65.5 524.653,65.5 C529.678,65.5 528.464,59.133 521.391,48.396 C514.459,37.873 506.417,31.417 503.667,34.167" id="Path"></path>
				<path d="M513.168,123.682 C522.518,124.933 528.495,124.258 529.421,121.846 C530.594,118.787 528.16,117.777 518.238,117.204 C512.882,116.895 507.6,116.362 506.5,116.02 C505.4,115.678 503.938,115.961 503.25,116.649 C499.746,120.156 502.754,122.289 513.168,123.682 Z" id="Path"></path>
				<path d="M12.111,118.252 C6.364,117.983 4.041,119.559 5.309,122.864 C5.819,124.191 7.458,124.5 14.001,124.5 C23.97,124.5 29.298,122.62 28.822,119.271 C28.454,116.675 26.272,116.205 21,117.587 C19.075,118.091 15.075,118.39 12.111,118.252 Z" id="Path"></path>
				<path d="M508.604,139.641 C511.847,140.543 515.649,141.736 517.053,142.291 C519.948,143.436 523,142.247 523,139.973 C523,137.832 518.723,135.443 511.218,133.393 C502.995,131.147 503.523,131.165 501.93,133.084 C499.821,135.625 502.053,137.817 508.604,139.641 Z" id="Path"></path>
				<path d="M9,140.59 C9,143.772 11.419,143.855 20.215,140.975 C29.276,138.008 31.59,136.481 30.668,134.078 C29.829,131.89 24.836,132.174 17.478,134.828 C9.878,137.569 9,138.166 9,140.59 Z" id="Path"></path>
			</g>
			<g id="brws" transform="translate(84.656212, 294.000000)" fill="#000000">
				<path d="M0.137,37.721 C0.515,38.333 2.596,38.47 5.382,38.067 C13.512,36.889 30.654,33.9394063 47.635,33.9414063 C61.013,33.9434063 63.0068359,33.9434063 73.140625,36.5353978 C100.329152,46.0566406 160.15,63.345 164,64.487 C176.657,68.242 189.911,71.486 195.25,72.136 C201.132,72.852 201.247,72.654 199.847,64.182 C199.178,60.134 199.501,60.346 183,53.072 C181.35,52.345 94.826875,13.2000313 90.046875,10.9570313 C85.266875,8.71403125 64.3,3.05 61,2.465 C57.7,1.88 54.1279297,0.830566406 50.5239258,0.830566406 C36.0483398,3.22949219 -1.09765625,32.2568359 0.137,37.721 Z" id="Path"></path>
				<path d="M297.393,50.061 C291.636983,52.0083578 290.719,52.037 288.466,56.947 C287.19,59.726 285.325,63.772 284.323,65.938 C283.32,68.104 282.5,70.016 282.5,70.188 C282.5,71.222 293.337,69.65 304.5,66.998 C307.525,66.279 411.575,47.042 413.5,46.556 C419.662,45.002 431.858,44.39 436.5,45.403 C441.686,46.535 465.842,52.012 472.5,53.566 C474.975,54.143 486.486,56.613 488.303,57.024 C491.551,57.759 491.594,57.723 490.888,54.886 C489.731,50.235 486.626,45.242 482.679,41.683 C477.602,37.105 438.910312,13.7995337 437.93,13.387 C435.213867,12.244 428.947266,12.244 424.924316,14.0361328 C414.812988,15.6899414 333.784668,36.5 297.393,50.061 Z" id="Path"></path>
			</g>
		</g>
		<g id="hair" transform="translate(166.000000, 66.000000)">
			<g id="Hair-L" transform="translate(540.000000, 73.000000)">
				<path d="M18.8731767,0 C6.87245166,22.5120176 0.872089155,33.7680264 0.872089155,33.7680264 C0.872089155,33.7680264 -2.10964178,39.5165141 2.95376572,51.4132385 C11.8508273,72.5436881 38.9793123,98.9002437 55.9859802,127.175266 C72.9926482,155.450288 82.6396797,171.944905 87.696051,192.304446 C90.3047648,205.99286 91.245907,218.806338 85.3328067,245.340618 C82.1910393,261.632189 79.4197063,274.713798 66.0875263,289.269931 C74.5935215,319.933319 90.3047648,338.002218 90.3047648,351.488364 C87.4241095,364.513322 85.7667901,383.220941 85.3328067,407.611221 C111.411922,410.527554 124.45148,411.985721 124.45148,411.985721 C129.795252,403.003335 126.421251,393.935972 144.351345,377.130951 C144.351345,353.634322 147.949268,327.152481 149.523048,310.978461 C149.523048,310.978461 159.311741,251.628887 145.893952,186.778573 C119.531263,103.222635 103.708115,81.444688 74.5935215,43.2279569 C58.6344023,21.241757 47.5281163,14.7057397 47.5281163,14.7057397 C38.9767976,7.4775421 29.425151,2.57562887 18.8731767,0 Z" id="Path-0" stroke="#000000" fill="#000000"></path>
				<path d="M142.227607,309.788024 C141.828046,313.727586 141.398233,317.659586 140.93118,321.934343 C139.2883,336.971006 137.204688,356.1572 136.977505,374.003328 C125.140672,385.790645 122.790535,394.103167 120.733855,401.220576 C120.452121,402.195553 120.189824,403.144647 119.892067,404.076062 L92.8781075,401.055189 C93.4602913,380.537747 94.9881598,364.538996 97.5250842,353.068225 C97.575611,352.839767 97.6272589,352.609846 97.6795613,352.380053 C97.6916229,352.08068 97.6977248,351.783469 97.6977248,351.488364 C97.6977248,343.909973 93.6736791,334.943689 88.0328069,323.601159 C83.6246108,314.737264 78.3300345,304.145918 74.3123624,291.068009 C86.3869971,276.592271 89.4025185,263.262996 92.5745586,246.824257 C98.7928409,218.873464 97.7095581,205.36414 94.9596609,190.93491 C89.665961,169.573664 79.8538397,152.534452 62.3302554,123.400013 C54.491768,110.367866 44.5620186,97.7235372 35.1749504,85.8007885 C24.4814663,72.2187285 14.4479952,59.6760643 9.77284864,48.5726288 C6.67631026,41.2970199 7.42462131,37.2317973 7.44186754,37.1411521 L22.5794461,8.74474808 C29.8781227,11.2565538 36.5964011,15.1155535 42.7406911,20.3091551 C42.9111031,20.4531997 43.0805676,20.5978433 43.2492414,20.7420977 C43.7635713,21.0344598 53.8849009,27.2606982 68.5995486,47.5324425 C97.3169176,85.2310172 112.84815,106.680678 138.724635,188.609346 C151.746415,251.926055 142.227607,309.788024 142.227607,309.788024 Z" id="Path-4" stroke="#444444" fill="#444444"></path>
				<path d="M32.8781671,16.5273508 C32.8781671,16.5273508 26.9496004,22.7462019 26.9496004,27.1314734 C30.3681224,49.0973268 30.3681224,49.0973268 36.7274638,63.7527987 C36.7274638,63.7527987 51.0400932,78.7533633 79.665352,108.754493 L70.8729759,71.5526933 C88.6919668,86.0481858 97.6014623,93.295932 97.6014623,93.295932 C83.3678484,66.0399858 58.0796896,34.1414447 32.8781671,16.5273508 Z" id="Path-7" stroke="#777777" fill="#777777"></path>
			</g>
			<g id="hair-r">
				<path d="M23.341206,498.822259 C24.605163,482.436338 20.2337118,467.039431 10.2268525,452.631535 C10.2268525,452.631535 3.35108653,372.345088 0.0319995178,323.911083 C0.0319995178,323.911083 -2.97149824,250.805777 49.2183251,161.020489 C84.6015206,107.939085 123.251005,77.2724972 161.28491,52.279528 C196.723084,30.8136502 234.901204,10.1276725 298.404242,1.56023199 C298.404242,1.56023199 446.140813,-11.5885928 505.351597,38.4561583 C505.351597,38.4561583 559.626949,47.1364231 563.799207,75.0916287 C563.799207,75.0916287 563.163229,91.0286525 543.842687,110.454826 C534.751796,118.082464 511.321394,123.038329 511.321394,123.038329 C446.569614,126.065956 422.01232,129.018411 378.051531,127.832159 C312.598559,126.065956 303.972053,132.361932 281.899604,132.361932 C273.78108,132.361932 261.249472,134.112577 257.440037,137.974338 C257.440037,137.974338 259.69236,125.776117 271.675152,120.889868 C271.675152,120.889868 260.361937,118.179685 218.726955,137.974338 C218.406565,137.974338 193.800203,144.578156 180.67865,142.860587 C180.67865,142.860587 198.242452,133.133698 203.132285,118.929846 C203.132285,118.929846 143.233925,145.773613 109.545071,176.814682 C75.8562183,207.85575 57.0792575,261.294831 54.9025316,297.792271 C54.9025316,297.792271 54.2173549,319.831406 63.8422273,343.534098 C70.2588088,359.335893 74.7010576,370.793154 77.1689736,377.905882 L54.9025316,432.336375 L63.8422273,492.865379 L23.341206,498.822259 Z" id="Path-0" stroke="#000000" fill="#000000" stroke-linecap="round" stroke-linejoin="round"></path>
				<path d="M29.6901593,491.678278 C29.3784073,477.217865 24.9061487,463.481513 16.2147669,450.484149 C15.2320025,438.947533 9.21143809,367.911523 6.16838838,323.530879 C6.09060372,321.08538 4.30934088,250.525922 54.4304327,164.185014 C89.2029943,112.062268 127.194017,81.9267926 164.56308,57.3538372 C199.368635,36.2728748 236.858391,15.9241655 299.188698,7.49199526 C304.127701,7.04723714 444.63091,-5.13547384 501.566234,42.986074 C502.011953,43.3627945 502.454884,43.7451825 502.894445,44.1292837 C503.968253,44.2666617 504.561562,44.3603623 504.561562,44.3603623 C504.561562,44.3603623 527.361109,47.961073 543.724134,58.2175611 C550.504516,62.4675645 556.414831,67.8594845 557.806654,75.1600713 C557.452827,77.7146004 554.989614,90.4949653 539.889845,105.77194 C532.190606,112.038988 513.97784,116.101962 510.731146,116.788545 C491.710168,117.680561 476.160566,118.565116 462.562504,119.338713 C430.291832,121.174598 409.093497,122.386424 378.351855,121.556882 C334.930206,120.385178 316.206161,122.726822 302.171057,124.474829 C295.136388,125.350964 289.339762,126.086034 282,126.086034 C279.433813,126.086034 276.541597,126.284261 273.592105,126.658346 C283.262564,120.078479 300.491771,111.008117 325.279727,99.447261 C307.885708,102.275069 290.656501,106.85476 273.592105,113.186335 C256.943254,116.788545 233.736044,124.474829 216.764456,132.01267 C213.954425,132.692443 207.002454,134.433107 199.411247,135.645415 C203.815062,130.152257 204.271612,127.490443 210.518034,119.338713 C214.682315,113.904226 218.150597,108.084317 220.92288,101.878983 C207.435999,109.417218 200.692559,113.186335 200.692559,113.186335 C200.692559,113.186335 139.725012,140.57265 105.421515,172.18006 C70.5623884,204.29943 51.0426723,259.570374 48.7891969,297.354689 C48.7812622,297.529632 48.0174232,320.782217 58.1727838,345.79132 C63.9185716,359.941187 68.0704874,370.577459 70.6241167,377.701745 L48.5981465,431.544413 L56.8886589,487.677929 L29.6901593,491.678278 Z" id="Path-4" fill="#444444"></path>
				<path d="M501.566234,42.986074 C502.011953,43.3627945 502.454884,43.7451825 502.894445,44.1292837 L504.728904,44.3877496 C506.825425,44.7370728 528.17926,48.4738974 543.724134,58.2175611 C550.357117,62.3751732 556.15745,67.6255928 557.709514,74.6866442 L557.806654,75.1600713 C555.803516,83.8368533 548.28283,92.2021913 546.526843,94.0646607 L546.042548,94.5626821 C545.171287,95.4012397 539.406314,100.594983 529.1435,101.762144 L527.477422,101.93472 C515.676251,103.191726 494.438081,106.796759 481.793999,101.820771 C480.01746,95.788275 488.260579,91.5135566 491.316875,77.6877864 L489.763074,78.6707144 C484.602574,81.8942793 467.358506,92.3421664 449.718039,99.3947315 L447.391698,100.303363 C443.258428,101.849701 427.401796,107.345182 411.759583,106.957274 C399.633837,106.656571 386.107498,103.667128 371.180565,97.9889477 C381.656608,94.6914393 393.761596,88.9578076 407.495528,80.7880525 C420.817475,72.5626854 430.291352,64.8866364 435.917161,57.7599053 L433.605311,58.2936694 C412.209927,63.2852958 395.907285,68.5521132 384.697383,74.0941217 L384.101725,74.3912783 C372.48292,80.2405349 354.208942,86.9261711 329.279791,94.4481871 C340.468106,81.7579969 354.435031,70.8880617 371.180565,61.8383815 C392.18185,52.5387837 410.947811,45.720719 427.478448,41.3841874 C411.159028,39.2189642 392.393066,39.7694825 371.180565,43.0357422 C340.563007,48.6835555 327.962836,59.1930132 317.972576,64.7610094 C304.564832,72.5542836 295.027557,72.5542836 278.168131,81.9943116 L278.543564,81.0074207 C280.784952,75.2059408 284.35706,67.9954496 300.708443,56.2285713 L301.856525,55.4098005 C322.146034,40.8290681 351.017651,34.083619 351.017651,34.083619 L349.818663,34.2566424 C332.354227,36.7130424 328.905035,34.3832639 306.129892,42.4743181 L304.564832,43.0357422 C280.088114,51.8983441 282.945845,51.9946166 278.310913,53.2499396 L278.168131,53.2883447 C273.329896,54.5810224 249.901893,63.4527283 242.922931,63.4527283 C248.82273,59.657513 255.168114,54.4695985 261.959083,47.8889848 C245.22874,50.1468647 230.70467,54.1120884 218.386873,59.7846559 L217.418999,60.2360373 C204.242648,66.3261456 191.681075,73.5789037 179.734282,81.9943116 L180.299356,81.2306522 C189.731277,68.6581516 208.88369,51.3649315 208.88369,51.3649315 L205.706655,53.3089752 C172.397724,73.5847202 168.63904,72.4392029 136.344959,94.4481871 L134.59191,96.263602 C106.614638,125.150486 110.398799,117.021166 90.638515,140.013576 C87.5654197,153.275225 78.3269342,162.193141 78.3269342,162.193141 L77.6534773,162.749273 C66.832883,171.780627 64.5784502,178.502628 39.3270618,219.043354 C13.560339,260.411441 6.99176259,333.258691 6.99176259,333.258691 C6.99176259,325.174054 7.2555428,317.337425 7.77185046,309.72497 L7.55603142,311.376334 C6.73593913,317.799514 6.42169444,322.021201 6.16838838,323.530879 L6.13879395,322.366363 C6.06370065,312.561432 7.31660639,245.345468 54.4304327,164.185014 C89.2029943,112.062268 127.194017,81.9267926 164.56308,57.3538372 L166.654811,56.0899476 C200.878162,35.4636931 238.104997,15.7555221 299.188698,7.49199526 L300.418062,7.38689281 C315.234249,6.16910708 446.908323,-3.21061193 501.566234,42.986074 Z" id="path-7" stroke="#777777" fill="#777777"></path>
			</g>
		</g>
		<g id="mouth" transform="translate(376.000000, 770.000000)">
			<path d="M162.5,66.522 C155.9,66.901 139.475,67.752 126,68.413 C97.603,69.806 95,70.104 95,71.96 C95,74.355 104.235,81.65 112,85.389 C118.533,88.535 120.64,89.045 128.345,89.353 C138.775,89.769 144.788,88.097 160.5,80.41 C171.529,75.014 172.787,74.288 178.251,70.162 C182.524,66.936 182.336,65.424 177.691,65.667 C175.936,65.759 169.1,66.144 162.5,66.522" id="Chn" fill="#DA9E8E"></path>
			<path d="M3.452,7.5 C4.90234375,8.55419922 33.738,23.267 47.5,29.259 C61.391,35.307 73.123,38.662 83.5,39.554 C97.122,40.724 154.39,40.69 165.5,39.504 C170.45,38.976 179.225,38.061 185,37.47 C190.775,36.879 197.975,35.694 201,34.836 C209.118,32.536 229.825,25.611 235,23.465 C251.729,16.532 268.128,10.5 270.252,10.5 C273.356,10.5 275.257,8.341 274.827,5.305 C274.394,2.252 277.174,2.242 211.5,5.538 C201.05,6.062 184.625,6.935 175,7.476 C152.396,8.749 84.702,8.764 66,7.501 C40.399,5.771 26.735,4.361 16.642,2.408 C4.829,0.122 2.614,0.055 1.053,1.936 C-0.383,3.667 2.00165625,6.44580078 3.452,7.5 Z" id="Lps" fill="#000000"></path>
			<path d="M44.454,19.478 C63.523,28.427 73.86,31.402 90.162,32.633 C119.094,34.817 180.134,32.424 195.051,28.52 C204.402,26.073 238.697,14.165 239.807,12.979 C240.188,12.572 237.35,12.512 233.5,12.845 C217.968,14.188 172.319,14.997 115.5,14.935 C59.692,14.874 37.297,14.055 31.462,11.863 C29.722,11.209 29.655,11.317 30.872,12.813 C31.627,13.741 38.619,16.74 44.454,19.478 Z" id="Mth" fill="#BBCDD8"></path>
			<path d="M59,14.561653 L59.5731891,17.7877554 C60.920334,25.3672887 62.237364,26.7668478 70.6946636,29.6111495 C78.6279621,32.2803652 79.5955537,33.3549066 124.713867,33.4622174 C155.650017,33.5367702 184.327851,30.6094798 186.812339,30.2706035 C196.601726,28.9388197 204.44347,23.5531709 206.093773,19.7035361 C207.411807,16.6287984 208.537099,14.1938276 208.231934,13.8515625 C208.029159,13.6226327 158.285181,13.8593296 59,14.561653 Z" id="Tth" fill="#FFFFFF"></path>
		</g>
		<g id="nose" transform="translate(425.000000, 589.000000)">
			<path d="M53.499103,8.619492 C50.68275,10.800654 46.122259,13.453457 43.364521,16.80284 C38.016309,23.301338 36.415134,27.486615 37.179981,32.96927 C37.894791,38.099281 46.491101,38.364852 56.991666,33.580227 C67.163418,28.946528 78.701888,28.664994 91.496994,32.735626 C105.149873,37.080535 117,36.154666 117,30.744572 C117,28.422643 93.998831,5.229475 89.126683,2.637622 C82.987891,-0.626139 73.948399,-0.881551 66.008285,1.986031 C61.945302,3.4532 56.316885,6.43833 53.499103,8.619492 Z" id="Nose-4" fill="#DA9E8E"></path>
			<path d="M22,97.300388 C22,106.032715 30.338199,114.635466 46.367306,122.822862 C55.839708,127.661002 58.467881,128.323218 70.301159,128.848879 C80.792176,129.315808 86.0124,128.768121 95.060018,126.254344 C116.200986,120.378096 136.561737,108.356897 142.404689,98.298851 C145.548671,92.885127 144.137058,90.196618 137.354957,88.682772 C129.203143,86.862046 121.091785,89.29947 109.455006,97.062519 C96.049736,106.006104 88.438294,108.556589 75.157282,108.556589 C64.007415,108.556589 60.075993,106.964922 48.832211,97.893593 C41.600763,92.059926 34.00088,88 30.315081,88 C29.273348,88 25.632161,88.729385 23.413574,91.790527 C23.413574,91.790527 22,93.118652 22,97.300388 Z" id="Nose-5" fill="#DA9E8E"></path>
			<path d="M137.20261,37.935591 C139.510964,37.014652 142.128822,38.139374 143.049761,40.447728 L143.502633,41.55836 C144.455256,43.838089 145.447681,45.831772 147.649899,49.918913 L151.087352,56.252831 C154.195624,62.03608 155.937121,65.711112 157.419692,69.889936 C159.589234,76.005078 160.460353,81.718033 159.816503,87.3901 L159.744485,87.976734 L159.705628,88.271025 L159.628451,88.557662 C156.875913,98.780569 152.180651,105.47776 145.06859,109.355648 C139.025164,112.650857 131.758746,113.800781 120.780273,113.800781 C118.294992,113.800781 116.280273,111.786063 116.280273,109.300781 C116.280273,106.8155 118.294992,104.800781 120.780273,104.800781 L121.912489,104.79609 C139.985663,104.643493 146.912181,100.724613 150.818108,86.656081 L150.858,86.507 L150.865135,86.455163 C151.766778,78.912411 149.439363,72.151681 142.631023,59.535954 L140.017625,54.727238 C137.055308,49.246866 136.022687,47.121965 134.690473,43.782741 C133.769535,41.474388 134.894257,38.856529 137.20261,37.935591 Z" id="Nose-1" fill="#000000"></path>
			<path d="M24.164238,93.540485 C27.601815,90.501894 31.896951,89.727774 36.403622,91.231294 C37.469969,91.587049 38.364551,92.329033 38.91132,93.311226 C48.482467,110.504456 63.343441,117.40971 77.280831,115.571825 C77.621267,115.526933 77.965722,115.521154 78.307473,115.554602 C88.532159,116.555318 96.547959,113.076529 105.3648,105.427265 L105.821574,105.027896 C107.602871,103.458528 113.017407,98.31131 113.455944,97.911087 C116.52256,95.112392 118.733591,93.509018 121.158562,92.66317 C121.635013,92.49698 122.136022,92.412109 122.640625,92.412109 C125.621493,92.412109 128.63612,93.086236 131.661837,94.401247 C133.941157,95.391865 134.985856,98.042674 133.995238,100.321993 C133.004619,102.601313 130.353811,103.646012 128.074491,102.655394 C126.556007,101.995444 125.117089,101.60502 123.746741,101.468 L123.495,101.446 L123.467969,101.461891 C122.647986,101.913201 121.54649,102.750833 120.075646,104.060333 L119.522879,104.558816 C119.202266,104.851418 113.707738,110.074679 111.771124,111.780884 C101.397109,120.92065 91.349767,125.533991 78.614129,124.612604 L77.944,124.559 L77.932341,124.560516 C61.287886,126.545693 43.814048,118.676326 32.437478,100.070487 L32.081,99.48 C31.396323,99.475487 30.838648,99.69897 30.27792,100.153917 L30.124824,100.283734 C28.262728,101.929704 25.418877,101.754499 23.772907,99.892403 C22.126936,98.030306 22.302141,95.186455 24.164238,93.540485 Z" id="Nose-2" fill="#000000"></path>
			<path d="M43.973001,5.979481 C46.357432,6.680274 47.72229,9.181343 47.021496,11.565774 L46.594008,13.005927 C40.102373,34.657422 33.237135,47.628547 25.12027,52.180835 L24.792,52.359 L24.474452,52.611505 C23.206373,53.631412 22.020504,54.679137 20.91399,55.752446 L20.367333,56.291222 C15.511981,61.153921 12.4263,66.304506 10.725083,71.415879 C10.142263,73.166985 9.771713,74.775135 9.569323,76.194006 C9.515224,76.573274 9.477338,76.911159 9.452803,77.204575 L9.422852,77.668945 C9.422852,88.081033 12.756083,95.670028 18.481462,100.725407 C22.758315,104.501771 28.271159,106.615603 32.596458,106.736679 L32.986328,106.742188 C35.471609,106.742188 37.486328,108.756906 37.486328,111.242188 C37.486328,113.727469 35.471609,115.742188 32.986328,115.742188 C26.430493,115.742188 18.589501,112.827116 12.5245,107.471858 C4.839487,100.686167 0.422852,90.630514 0.422852,77.668945 L0.428251,77.345669 C0.446641,76.76026 0.513942,75.943608 0.659508,74.923099 C0.936029,72.984528 1.427516,70.851527 2.185644,68.573701 C4.315707,62.173842 8.12633,55.813193 13.998563,49.932075 C15.488688,48.439695 17.098092,46.994682 18.830134,45.601393 L19.579956,45.007448 L19.950735,44.718231 L20.373295,44.511916 C25.911101,41.80808 32.258847,29.87785 38.386707,9.027976 C39.087501,6.643545 41.58857,5.278687 43.973001,5.979481 Z" id="Nose-3" fill="#000000"></path>
		</g>
		<g id="eyes" transform="translate(280.000000, 508.000000)">
			<g id="bls" transform="translate(0.667507, 0.022319)" fill="#FFFFFF">
				<path d="M391.832493,0.995681032 C389.632493,1.47468103 382.657493,2.38568103 376.332493,3.01868103 C370.007493,3.65168103 350.337181,7.27561072 348.137181,7.73061072 C345.937181,8.18661072 329.758603,14.0602748 325.369603,16.2862748 C320.979603,18.5112748 312.182216,24.9769974 309.948216,29.2769974 C308.719216,31.6419974 305.947493,37.097681 305.438493,37.411681 C304.929493,37.726681 303.950493,41.131681 303.263493,44.978681 C301.531493,54.666681 303.042493,61.230681 308.406493,67.324681 C312.440493,71.907681 321.112493,76.818681 328.832493,78.891681 C331.341493,79.565681 346.636493,79.968681 369.872493,79.9723365 C409.756493,79.977681 412.860493,79.661681 423.660493,74.482681 C431.995493,70.485681 445.928493,58.229681 449.961493,51.347681 C452.771493,46.552681 454.849493,32.283681 453.802493,24.977681 C452.098493,13.093681 441.361493,5.01168103 423.115493,1.88068103 C417.469493,0.911347699 407.041827,0.616347699 391.832493,0.995681032 Z" id="bl"></path>
				<path d="M33.5914934,1.87768103 C31.8094934,1.93268103 26.3224934,3.49368103 21.3974934,5.34768103 C11.2144934,9.17968103 7.32849343,12.564681 3.02749343,21.347681 C-4.33050657,36.373681 4.11949343,53.385681 27.4424934,70.504681 C39.9714934,79.700681 41.7704934,79.977681 88.9784934,79.977681 C109.378577,80.1225378 121.573562,79.9019974 125.56345,79.3160599 C129.553338,78.7301224 132.117353,77.9833295 133.255493,77.075681 C144.678493,72.427681 151.653493,65.923681 153.367493,58.321681 C154.776493,52.073681 152.794493,39.275681 149.687493,34.564681 C144.918493,27.334681 135.229493,18.521681 128.832493,15.596681 C125.532493,14.087681 121.207493,12.003681 119.222493,10.965681 C117.236493,9.92768103 112.511493,8.56168103 108.722493,7.92968103 C104.932493,7.29768103 98.6824934,6.10868103 94.8324934,5.28868103 C78.8394934,1.88068103 69.0824934,0.654681032 55.8324934,0.387681032 C48.1324934,0.232681032 40.7074934,0.481681032 39.3324934,0.941681032 C37.9574934,1.40168103 35.3744934,1.82268103 33.5914934,1.87768103 Z" id="br"></path>
			</g>
			<g id="eb-r" transform="translate(39.000000, 3.000000)">
				<ellipse id="o1" fill="#321A04" cx="42" cy="37.5" rx="42" ry="37.5"></ellipse>
				<ellipse id="o2" fill="#AA6459" cx="42.5" cy="37.5" rx="36.5" ry="32.5"></ellipse>
				<path d="M42.5,5 C48.2809837,5 53.7480686,6.19667688 58.6058558,8.32700416 L70.7473433,16.9159554 C75.9050036,22.5208476 79,29.6885958 79,37.5 C79,39.6705171 78.7610383,41.7913382 78.3052622,43.8427429 C76.1758077,44.5925486 73.8854865,45 71.5,45 C65.2462723,45 59.6465827,42.1997303 55.8864231,37.784683 C55.9616778,37.2002034 56,36.604577 56,36 L55.9969695,35.7493392 C56.098318,35.7699381 56.1858024,35.6409086 56.2629932,35.3994302 L46.0325566,22.5908547 L46.0325566,22.5908547 C44.7557692,22.2060689 43.4019496,22 42,22 C34.6038623,22 28.5472806,27.7353209 28.0350841,35.0011335 C25.2711567,37.4829357 21.5686485,39 17.5,39 C13.0343176,39 9.00972074,37.1724077 6.18128367,34.24794 C8.01331884,17.8252135 23.5745771,5 42.5,5 Z" id="Path" fill="#6C2E21"></path>
				<circle id="o3" fill="#321A04" cx="42" cy="36" r="14"></circle>
				<circle id="ob" fill="#FFFFFF" cx="58.5" cy="23.5" r="12.5"></circle>
			</g>
			<g id="eb-l" transform="translate(335.000000, 4.000000)">
				<ellipse id="o1" fill="#321A04" cx="42" cy="37.5" rx="42" ry="37.5"></ellipse>
				<ellipse id="o2" fill="#AA6459" cx="42.5" cy="37.5" rx="36.5" ry="32.5"></ellipse>
				<path d="M42.5,5 C48.282812,5 53.7480686,6.19667688 58.6058558,8.32700416 C62.6811549,9.54232849 66.4380246,12.018288 69.8764648,15.7548828 C75.0341252,21.359775 76.2729492,24.5256348 78.3052622,30.4821777 C78.8591309,32.6850586 78.8591309,33.3259277 78.8591309,35.3994302 C77.0305176,36.817627 73.988591,38.5334473 67.7348633,38.5334473 C61.4811356,38.5334473 57.9370117,37.5 56.0808105,35.3994302 L46.0325566,22.5908547 C44.7557692,22.2060689 43.4019496,22 42,22 C34.6038623,22 28.5472806,27.7353209 28.0350841,35.0011335 C23.105957,39.8188477 16.8239746,43.0273437 6.56176758,43.0273437 C2.55029297,19.3586426 23.6625977,5 42.5,5 Z" id="Path" fill="#6C2E21"></path>
				<circle id="o3" fill="#321A04" cx="42" cy="36" r="14"></circle>
				<circle id="ob" fill="#FFFFFF" cx="58.5" cy="23.5" r="12.5"></circle>
			</g>
			<g id="lds" transform="translate(1.000000, 0.000000)" fill="#000000">
				<path d="M319.340332,19.276681 C314.344463,21.4268405 304.869545,34.755681 306.094545,35.980681 C306.349545,36.234681 309.533545,34.861681 313.171545,32.930681 C323.441659,27.4298295 340.08033,20.415681 363.925545,19.595681 C373.320545,18.182681 420.196545,18.798681 426.425545,20.415681 C438.938545,23.665681 446.055545,28.874681 450.376545,37.944681 L452.774545,42.977681 L453.849545,40.162681 C455.543545,35.729681 455.134545,23.539681 453.149545,19.276681 C450.663545,13.938681 444.349545,7.58868103 439.433545,5.48068103 C430.330545,1.57868103 422.803545,0.386681032 405.425545,0.092681032 C396.075545,-0.065318968 385.964545,-0.016318968 382.955545,0.201681032 C381.448391,0.3109096 369.329221,1.47312801 355.682519,4.42268029 C342.09293,7.3598883 326.988567,12.069501 319.340332,19.276681 Z" id="ll"></path>
				<path d="M23.6673678,3.49754054 C13.5484835,5.36452174 6.51071523,11.2823662 1.50808653,22.1309039 C0.0410816467,25.3110492 -0.247043795,27.6751496 0.181086262,33.0280398 C0.887196499,41.8749388 1.68461409,42.9926976 3.85772922,38.1845123 C9.61617994,25.4497566 26.6277553,17.5859589 48.4218071,17.5859589 C59.1595525,17.5859589 100.971221,20.5474122 105.340785,21.6165728 C125.343184,26.5148673 128.882945,27.2097924 138.82015,31.2785043 C140.215123,31.7057635 143.059855,33.1282736 145.140648,34.4394128 C147.222456,35.750552 149.16223,36.82275 149.452384,36.82275 C151.490568,36.82275 147.435506,28.1155708 143.925246,24.9546623 C136.292751,16.4859933 119.113672,7.59629404 96.7173124,4.00275942 C72.6223152,-0.293119773 71.7964908,-0.357917385 50.0491072,0.315370304 C40.0052978,0.626196349 30.5754551,1.46268828 23.6673678,3.49754054 Z" id="lr"></path>
			</g>
		</g>
		<g id="spec" transform="translate(220.000000, 488.000000)">
			<path d="M463.726112,0.00189159187 C512.272495,-0.0530415496 520.941647,1.02682836 555.248124,11.4019641 C591.091511,22.2440315 590.007144,20.7304789 586.158365,54.5765221 L586.158365,54.5765221 L584.537598,68.8258899 L578.520084,72.6321783 C569.772858,78.1645239 566.513974,82.171752 562.562541,92.2534291 C558.199048,103.384618 550.588238,113.92889 543.239122,119.020325 C527.361099,130.022855 436.923453,133.910098 396.930556,125.308724 C376.146857,120.838901 354.459519,115.053574 347.584633,112.145009 C339.780083,108.843238 336.206009,103.634709 326.727197,81.7438518 C322.000803,70.8295039 316.315829,59.6939779 314.093599,56.9979171 C309.679503,51.6419358 302.992574,49.123685 293.146522,49.1121201 C278.406362,49.0918816 272.487164,55.2357198 260.442016,83.0506823 C255.748877,93.8884129 250.176676,104.609049 248.059992,106.874318 C243.410227,111.852996 225.375037,117.823361 194.5154,124.601821 C173.679652,129.178619 173.293617,129.207532 131.62212,129.268247 C89.9173684,129.328963 66.8030034,127.397629 51.5510214,122.579414 C41.9218433,119.536408 29.5831937,105.060079 24.61101,90.9697283 C22.0172044,83.6188066 15.5326903,76.3199268 7.64283665,71.8688968 C3.25187359,69.391123 2.21088136,67.9671981 2.1689525,64.377751 C2.14148187,61.9404542 1.53712805,53.4475015 0.828675006,45.5067713 C-0.972819882,25.3361891 -0.445094654,23.5855566 8.64190002,19.5682092 C18.7785619,15.0853758 44.5113115,7.41352887 62.9455489,3.37594297 C77.5873938,0.169582234 80.078546,0.0698352143 133.067942,0.572907142 C175.038725,0.970449613 190.228536,1.60073513 197.407045,3.24583816 C202.575861,4.43123753 211.033923,5.88262895 216.202738,6.47099181 C221.371554,7.06080028 230.480236,9.14247722 236.444254,11.0969406 C255.01729,17.1829544 274.414446,20.1927123 294.997175,20.1797018 C312.685368,20.168137 316.100401,19.6520546 352.832969,11.4438867 C374.303433,6.64735611 398.376379,2.11970876 406.328403,1.38533939 C414.280427,0.650970027 440.110046,0.0279125536 463.726112,0.00189159187 Z M429.891162,14.0181453 C425.293162,14.4031453 417.868162,15.4021453 413.391162,16.2381453 C408.914162,17.0741453 399.401162,18.6821453 392.251162,19.8121453 C374.351162,22.6411453 363.088162,24.7581453 357.658162,26.3141453 C339.972162,31.3831453 335.187162,40.5581453 337.570162,64.8321453 C339.696162,86.4821453 344.424162,94.5821453 359.682162,102.715145 C373.451162,110.053145 390.992162,114.039145 426.251162,117.843145 C437.164162,119.020145 480.294162,119.017145 490.751162,117.838145 C512.468162,115.390145 529.326162,111.741145 533.276162,108.634145 C536.873162,105.804145 541.013162,99.3961453 544.726162,90.9121453 C549.126162,80.8561453 551.290162,72.6101453 553.342162,58.0821453 C555.338162,43.9411453 554.668162,40.0521453 549.361162,34.9821453 C545.176162,30.9841453 534.800162,25.5211453 526.251162,22.8141453 C522.401162,21.5951453 517.901162,20.0161453 516.251162,19.3061453 C504.023162,14.0411453 461.055162,11.4101453 429.891162,14.0181453 Z M92.9078393,14.1274544 C70.0808393,17.2464544 39.7438393,29.0944544 35.0668393,36.7164544 C30.2368393,44.5874544 29.7818393,52.1054544 33.3148393,65.6374544 C38.6608393,86.1094544 45.0378393,100.433454 51.6928393,106.922454 C55.0608393,110.204454 56.5308393,110.778454 67.4078393,113.056454 C90.2565393,117.840814 92.9464433,118.127621 124.913661,118.137248 L128.803197,118.137248 C159.185928,118.130032 161.750039,117.910394 187.288839,113.987454 C210.065839,110.489454 225.796839,104.711454 236.668839,95.8514544 C244.679839,89.3224544 248.939839,76.0194544 249.068839,57.1284544 C249.223839,34.5624544 244.258839,29.2084544 218.407839,24.0624544 C214.557839,23.2964544 208.482839,22.0014544 204.907839,21.1864544 C201.332839,20.3704544 193.457839,19.0014544 187.407839,18.1434544 C181.357839,17.2854544 171.495839,15.8864544 165.492839,15.0354544 C149.784839,12.8074544 106.526839,12.2654544 92.9078393,14.1274544 Z" id="spc" fill="#000000"></path>
			<g id="glw" opacity="0.2" transform="translate(31.000000, 13.000000)" fill="#FFFFFF">
				<path d="M409.02501,0.368001237 L377.727688,102.735935 L376.071374,102.508111 C353.111456,99.3064518 339.691134,95.5822258 328.682162,89.7151453 C313.576742,81.6634753 308.791775,73.6441486 306.634731,52.4775939 L306.570162,51.8321453 C304.210992,27.8008853 308.877179,18.5681552 326.131447,13.4674581 L326.658162,13.3141453 C332.012746,11.7797564 343.039427,9.69984265 360.509168,6.92960868 L364.518815,6.28925499 C371.077605,5.22804419 378.569333,3.95180385 382.391162,3.23814532 C386.868162,2.40214532 394.293162,1.40314532 398.891162,1.01814532 C402.155873,0.744933749 405.550126,0.529217356 409.02501,0.368001237 Z" id="gl"></path>
				<path d="M61.9078393,1.12745442 L62.6021655,1.03770615 C70.1388142,0.11568445 85.3478761,-0.166829734 100.324736,0.090922248 L70.2723127,104.893253 L69.0072418,104.845102 C58.0159788,104.394285 51.7351998,103.255009 37.9957643,100.38841 L34.5313447,99.6600673 C25.345686,97.6989319 23.8567181,97.0055453 20.6928393,93.9224544 C14.0378393,87.4334544 7.66083931,73.1094544 2.31483931,52.6374544 C-1.21816069,39.1054544 -0.763160687,31.5874544 4.06683931,23.7164544 C8.74383931,16.0944544 39.0808393,4.24645442 61.9078393,1.12745442 Z" id="gr"></path>
			</g>
		</g>
	</g>
</svg>
