<svg viewBox="0 0 1024 1024" xmlns="http://www.w3.org/2000/svg"><defs><filter x="-2.9%" y="-2.7%" width="105.8%" height="105.3%" filterUnits="objectBoundingBox" id="a"><feOffset dx="4" dy="4" in="SourceAlpha" result="soo"/><feGaussianBlur stdDeviation="4" in="soo" result="sbo"/><feColorMatrix values="0 0 0 0 0 0 0 0 0 0 0 0 0 0 0 0 0 0 0.5 0" in="sbo" result="smo"/><feMerge><feMergeNode in="smo"/><feMergeNode in="SourceGraphic"/></feMerge></filter></defs><g fill="none" fill-rule="evenodd" filter="url(#a)"><path d="M849.186 489.055c-9.72 4.928-19.954 17.6-23.95 29.656-.89 2.687-2.055 10.625-2.59 17.64-1.224 16.096-.583 73.388.868 77.474.585 1.65 1.297 7.05 1.58 12 .284 4.95.956 10.575 1.493 12.5.537 1.925 1.22 6.425 1.52 10 .3 3.575 1.005 8.525 1.566 11 .56 2.475 1.676 7.65 2.477 11.5 2.833 13.607 6.656 29.924 8.93 38.106 1.658 5.968 5.269 13.394 6.512 13.394 2.47 0 17.094-18.829 17.094-22.01 0-.545.378-.99.839-.99.462 0 1.384-1.012 2.049-2.25.665-1.237 2.296-4.05 3.624-6.25 2.453-4.06 4.848-8.213 10.962-19 5.873-10.364 20.555-39.5 19.903-39.5-.342 0-.17-.563.385-1.25.554-.687 1.336-2.825 1.738-4.75.402-1.925 1.16-4.033 1.683-4.684 1.316-1.636-1.152-43.852-2.824-48.316-.31-.825-.702-3.3-.875-5.5-.172-2.2-.998-8.275-1.835-13.5-1.386-8.652-2.19-13.133-5.646-31.5-.622-3.3-1.525-6.9-2.008-8-.483-1.1-1.183-3.575-1.554-5.5-.372-1.925-.954-3.95-1.293-4.5-.34-.55-.646-1.225-.682-1.5-.185-1.436-1.87-5.968-3.554-9.557-2.364-5.038-5.304-8.257-8.758-9.589-3.423-1.32-12.47-1.604-15.387-.484-6.108 2.344-7.626 3.007-12.267 5.36Z" fill="#000"/><path d="M851.93 505.053c-2.216 2.852-.947 7.825-2.073 9.157-3.343 3.952-7.641 5.806-8.942 10.115-.581 1.925-1.344 9.35-1.695 16.5l-.638 13 4.215-7c8.399-13.947 14.59-20.5 19.37-20.5 5.519 0 9.034 5.52 12.657 19.877 2.598 10.291 2.474 14.457-.474 16.035-1.285.688-2.973 1.105-3.75.927-1.95-.447-9.548 4.172-14.664 8.914l-4.25 3.94v12.998c0 11.323-.236 13.212-1.83 14.654-2.478 2.244-5.885 2.085-7.402-.345-.687-1.1-1.591-2-2.01-2-1.632 0-.62 5.481 2.203 11.91 3.784 8.623 4.453 13.141 3.048 20.59-1.805 9.575-1.447 14.673 2.32 33 3.063 14.893 4.824 22.033 5.638 22.857.983.994.819 1.246 13.263-20.357 12.875-22.349 17.398-30.994 21.388-40.876 5.09-12.607 4.888-20.429-1.727-66.624-4.608-32.177-8.008-54.365-12.227-61.616-2.024-3.478-6.416-3.52-10.464-1.857-2.19.9-8.912 2.785-11.955 6.7Z" fill="#FDE8DD"/><path d="M849 536.82c-.825 1.262-2.016 2.836-2.647 3.498-.63.661-2.543 3.82-4.25 7.018L839 553.152c.229 45.347.877 69.865 1.944 73.554.531 1.834 1.246 7.234 1.59 12 .712 9.888 1.217 12.186 2.293 10.444.396-.64.749 2.202.785 6.317.038 4.257.566 7.981 1.227 8.642.681.681 1.161.744 1.161.152 0-.555 2.137-3.235 4.75-5.955 5.632-5.863 13.303-20.845 18.914-36.936l3.836-11-.125-19c-.069-10.45-.573-21.138-1.121-23.75-.548-2.612-.614-4.75-.148-4.75.466 0 1.521-1.028 2.345-2.284 1.606-2.452 1.243-6.045-1.824-18.064-2.491-9.764-4.982-14.166-9.332-16.494-2.473-1.324-3.025-1.343-5.827-.208-2.052.832-7.707 6.774-10.468 11Z" fill="#FCCFBD"/><path d="M842.781 629.5c.344.825.685 3.075.756 5 .072 1.925.225 6.313.34 9.75.126 3.764.648 6.25 1.312 6.25.742 0 .899-1.678.48-5.123-.386-3.167-.205-5.627.474-6.446.604-.728 1.164-4.385 1.244-8.127.145-6.807-1.32-12.155-5.565-20.304L840 607l.555 5.5c1.355 13.43 1.637 15.587 2.226 17ZM843.702 546.016c-2.157 3.575-4.376 6.822-4.931 7.216-1.32.937-.812 40.155.527 40.617.53.184.964 1.646.964 3.25 0 1.605.378 2.917.839 2.917.462 0 1.353 1.125 1.979 2.5 1.522 3.34 5.569 3.365 7.742.05 1.307-1.996 1.543-4.745 1.273-14.806l-.333-12.355 5.708-4.9c6.192-5.319 12.326-8.895 13.748-8.016.492.304 2.053.024 3.469-.62 2.028-.925 2.575-1.893 2.575-4.558 0-4.06-2.652-15.556-4.601-19.946-.77-1.733-1.4-3.49-1.4-3.906 0-.415-1.147-2.259-2.55-4.099-3.098-4.062-7.573-4.474-11.483-1.058-3.624 3.166-8.987 10.19-13.526 17.714Z" fill="#DA9E8E"/><path d="M841.815 551.134c-2.418 4.367-3.535 7.752-3.71 11.247-.333 6.572.182 15.478.764 13.25.252-.963.822-1.75 1.268-1.75 1.488 0 2.19 4.4 2.752 17.264.551 12.616.587 12.772 3.08 13.398 1.743.437 2.895.123 3.73-1.018 1.911-2.614 2.53-11.447 1.447-20.662-.96-8.183-1.518-10.866-4.049-19.482-1.112-3.785-.98-4.33 2.436-10.137 4.105-6.978 11.285-16.363 12.518-16.363 1.034 0 3.372 7.18 5.592 17.175 1.742 7.844 3.028 9.44 6.678 8.28 2.531-.803 2.462-6.776-.195-16.92-2.276-8.688-4.152-12.91-7.237-16.285-2.502-2.736-4.328-2.818-8.056-.36-3.498 2.307-12.36 13.951-17.018 22.363ZM138.661 494.036c-1.695 3.322-6.387 19.652-6.87 20.752-.483 1.1-1.386 4.7-2.008 8-3.457 18.367-4.26 22.848-5.646 31.5-.837 5.225-2.4 18.175-2.71 19-.67 1.789-2.576 23.513-3.279 37.38-.32 6.34 3.386 20.345 3.37 20.62-.015.275 5.016 10.765 5.638 12.445 1.062 2.87 11.458 22.176 16.344 30.35 1.218 2.038 10.696 18.28 11.87 20.205 13.427 22.029 22.781 33.035 25.644 30.172 2.616-2.616 17.137-60.697 17.673-63.172 3.238-14.95 3.87-26.6 4.274-79l-3.604-41c-4.264-15.077-8.528-24.963-16.823-39-5.78-9.78-12.683-16.597-18.522-18.291-5.235-1.518-13.275-1.27-16.957.524-3.665 1.786-5.526 3.896-8.394 9.515Z" fill="#000"/><path d="M138.265 553.119c-4.251 26.776-7.118 57.419-6.035 64.5.829 5.423 3.866 12.977 10.254 25.5 6.794 13.318 30.47 53.975 31.442 53.99.402.005.925-1.002 1.16-2.24.238-1.238 1.607-7.425 3.043-13.75 6.203-27.322 6.505-29.918 7.617-65.43.834-26.634.928-63.342.617-68.82-.361-6.35-1.523-11.324-5.047-21.598-1.342-3.91-3.634-3.623-4.893-6.749-1.105-2.744-1.226-9.09-1.76-9.953-1.14-1.844-4.665-6.77-7.999-8.996-7.413-4.95-12.788-3.906-15.347 0-3.317 5.062-9.164 29.05-13.052 53.546Z" fill="#FDE8DD"/><path d="M157.696 525.503c-4.204 2.609-9.298 15.841-10.49 27.251-.726 6.944.378 9.044 4.754 9.044 2.567 0 2.763.228 1.939 2.25-1.394 3.423-3.865 16.196-5.071 26.212-1.288 10.711-.197 18.81 4.25 31.538 6.617 18.932 12.567 30.158 20.31 38.314 3.815 4.017 6.47 7.691 6.47 8.95 0 1.381.344 1.793.972 1.165.533-.533 1.096-3.661 1.25-6.95.159-3.403.839-6.42 1.579-7.002 1.52-1.197 3.104-29.814 3.163-57.168.02-9.455.45-17.446.954-17.758.517-.319.713-5.702.45-12.309-.563-14.143-1.156-18.49-2.418-17.711-.522.323-.95.14-.95-.406 0-1.389-11.246-17.961-14.757-21.747-5.151-5.554-8.01-6.4-12.405-3.673" fill="#FCCFBD"/><path d="M156.637 527.75c-2.775 3.164-5.066 8.617-7.439 17.697-3.484 13.338-2.979 16.542 2.613 16.562 3.51.013 11.735 4.959 16.55 9.951l4 4.147v12.899c0 11.72.183 13.04 2 14.437 2.908 2.235 5.773 1.486 7.436-1.943l1.454-3 .924 3.832c.803 3.331.517 4.666-2.179 10.195-5.796 11.888-5.845 17.67-.323 37.872 2.693 9.849 3.64 6.961 3.65-11.149.004-8.387.353-15.25.773-15.25.421 0 .765-9.135.765-20.3 0-11.165.37-20.728.823-21.25 1.21-1.397-.1-27.379-1.424-28.237-.605-.392-1.668-1.838-2.362-3.213-2.59-5.13-10.674-16.59-14.616-20.723-3.29-3.452-4.757-4.277-7.595-4.277-2.097 0-4.135.706-5.05 1.75" fill="#DA9E8E"/><path d="M148.278 559.252c.718 1.871 5.424 2.837 6.615 1.358.492-.61 1.909-5.61 3.15-11.11 2.354-10.43 3.464-13.5 4.884-13.5 1.17 0 7.993 9.235 12.389 16.771l3.658 6.271-1.54 4.537c-2.633 7.756-4.422 19.224-4.422 28.354 0 7.214.322 9.049 1.829 10.412 2.186 1.979 4.534 2.127 5.985.379.594-.716 1.078-6.035 1.103-12.139.047-11.44.742-17.256 2.167-18.137.472-.291 1.144.614 1.495 2.011 1.304 5.196 1.91 2.247 1.572-7.639-.346-10.061-.404-10.271-4.908-17.751C173.739 534.928 165.982 526 162.21 526c-1.377 0-3.598 1.287-5.225 3.029-4.206 4.503-10.368 25.893-8.707 30.223Z" fill="#000"/><path d="M507.373 958.805c-214.435-4.914-318.6-104.358-330.178-217.557 0 0-7.845-31.299 8.764-94.248 8.574-103.783 0-145.287 0-145.287C185.959 135 350.552 135 514.603 135c164.05 0 327.94 0 327.94 366.713 0 0-11.674 66.129 0 145.287 15.566 54.455 10.65 94.248 10.65 94.248-14.681 113.2-118.632 217.557-345.82 217.557Z" fill="#000"/><path d="M738.436 888.873c-53.796 33.843-129.782 54.908-230.88 54.931-96.889-2.251-170.558-24.128-222.542-58.38-56.831-37.447-87.165-89.67-92.897-145.702l-.072-.725c-.246-1.166-.287-1.342-.287-1.342-.008-.036-6.562-28.968 8.705-86.828.071-.272.143-.543.215-.81.18-1.186.205-1.484.23-1.782 7.767-94.016 1.666-138.341.096-147.648.155-148.722 27.236-235.206 71.815-284.948 59.116-65.964 147.665-65.68 235.607-65.65H520.803c87.877-.03 176.16-.315 235.078 65.568 44.494 49.755 71.486 136.303 71.66 284.694-1.733 11.097-10.827 74.423.162 148.937l.1.671c.2.853.259 1.058.318 1.264 14.382 50.314 10.3 87.29 10.184 88.292-7.427 56.962-39.23 111.31-99.869 149.458Z" fill="#FDE8DD"/><path d="M252.963 761.936c12.133 82.063 116.362 150.99 162.657 172.098 24.35 8.468 80.401 12.251 134.09 8.455 28.768-4.365 63.613-19.894 83.03-27.47 0 0 35.113-11.987 66.037-31.163 46.107-36.478 63.568-59.158 76.62-106.278 5.39-49.908-3.844-91.778-15.463-111.369-25.322-44.026-42.384-66.559-46.727-87.834l17.501-89.121 20.214-13.127c-12.427-25.211-64.166-182.892-74.643-197.328-6.35-16.822-39.434-50.117-58.052-59.797-27.173-18.572-58.61-26.267-103.383-26.267-69.554-5.778-112.876 18.213-136.545 32.699 0 0-21.42 11.9-39.076 46.101-26.247 54.563-41.406 142.414-45.335 165.63-.038 0 22.739 147.269 22.739 147.269-32.799 27.653-47.58 53.698-57.438 88.99 0 0-11.57 37.26-6.226 88.512Z" fill="#FCCFBD"/><g fill="#DA9E8E"><path d="M260 453.086c29.255 26.764 43.882 40.736 43.882 41.916 0 .383-4.665 4.328-13.996 11.835l10.496 14.067c47.279-.345 81.576 1.555 102.893 5.7 31.975 6.217 30.802 27.909 30.802 38.434 0 0 6.742-2.004 13.7-17.012 4.638-10.006 8.622-19.463 11.952-28.371l7.843-28.22L332.518 452 260 453.086ZM549.55 483.479l-4.854 2.353c3.91 15.51 6.267 24.73 7.072 27.66 2.476 9.013 5.776 18.077 12.228 27.61 6.451 9.534 16.607 17.898 18.57 17.898.596 0 1.39-2.028 1.76-4.507 1.068-7.122 6.538-13.708 15.947-19.202 11.52-6.726 24.528-15.95 58.166-16.858 33.639-.909 67.326 8.968 72.188 14.619 3.488 4.054 4.88 5 7 4.754 3.537-1.677 3.231-10.137-.916-25.382l11.834-6.815-18.548-16.334L763 477.026l-75.57-19.073-98.038 15.588-27.37-30.689-12.472 40.627Z"/></g><g fill="#000"><path d="M263.066 446.322c-8.952 8.217-10.446 10.788-7.63 13.125 1.666 1.382 4.648.164 6.763-2.764 4.857-6.723 25.011-21.654 38.613-28.606 2.464-1.259 3.232-2.254 3-3.885-.557-3.916-4.61-3.221-13.825 2.371-13.803 8.378-17.384 11.006-26.921 19.759ZM254.095 441.687c-6.254 6.586-8.171 9.247-7.923 11 .207 1.458 1.111 2.425 2.445 2.615 1.575.225 4.231-2.011 10.38-8.739 4.545-4.973 10.68-10.646 13.633-12.606 5.461-3.624 6.315-5.112 4.17-7.257-1.86-1.86-3.184-1.486-9.027 2.55-2.985 2.063-9.14 7.659-13.678 12.437ZM721.25 446.844c6.688 4.28 22.101 18.965 24.046 21.871 4.882 7.295 12.148 14.212 14.13 13.452 2.618-1.005 1.785-4.301-2.272-8.989-2.283-3.862-12.907-15.689-18.809-21.063-12.508-11.389-19.225-15.401-21.678-12.948-1.858 1.857-.259 4.536 4.583 7.677ZM749.667 455.167c-1.458 1.458-.532 4.375 1.894 5.965 4.604 3.017 12.633 14.494 15.472 22.118.905 2.433 1.816 3.25 3.62 3.25 5.025 0 3.811-6.367-3.262-17.104-6.932-10.523-14.974-16.979-17.724-14.229M759.168 544.682c9.35 1.251 15.327.576 16.253-1.836 1.173-3.059-1.261-4.069-11.183-4.642-5.356-.309-10.638-.842-11.738-1.184-1.1-.342-2.562-.059-3.25.629-3.504 3.507-.496 5.64 9.918 7.033ZM258.111 539.252c-5.747-.269-8.07 1.307-6.802 4.612.51 1.327 2.149 1.636 8.692 1.636 9.969 0 15.297-1.88 14.821-5.229-.368-2.596-2.55-3.066-7.822-1.684-1.925.504-5.925.803-8.889.665ZM754.604 560.641c3.243.902 7.045 2.095 8.449 2.65 2.895 1.145 5.947-.044 5.947-2.318 0-2.141-4.277-4.53-11.782-6.58-8.223-2.246-7.695-2.228-9.288-.309-2.109 2.541.123 4.733 6.674 6.557ZM255 561.59c0 3.182 2.419 3.265 11.215.385 9.061-2.967 11.375-4.494 10.453-6.897-.839-2.188-5.832-1.904-13.19.75-7.6 2.741-8.478 3.338-8.478 5.762Z"/></g><g fill="#000"><path d="M260.137 466.721c.378.612 2.459.749 5.245.346 8.13-1.178 25.272-4.128 42.253-4.126 13.378.002 15.372.002 25.506 2.594 27.188 9.522 87.009 26.81 90.859 27.952 12.657 3.755 25.911 6.999 31.25 7.649 5.882.716 5.997.518 4.597-7.954-.669-4.048-.346-3.836-16.847-11.11-1.65-.727-88.173-39.872-92.953-42.115-4.78-2.243-25.747-7.907-29.047-8.492-3.3-.585-6.872-1.634-10.476-1.634-14.476 2.398-51.622 31.426-50.387 36.89ZM557.393 479.061c-5.756 1.947-6.674 1.976-8.927 6.886a4237.233 4237.233 0 0 1-4.143 8.991c-1.003 2.166-1.823 4.078-1.823 4.25 0 1.034 10.837-.538 22-3.19 3.025-.719 107.075-19.956 109-20.442 6.162-1.554 18.358-2.166 23-1.153 5.186 1.132 29.342 6.609 36 8.163 2.475.577 13.986 3.047 15.803 3.458 3.248.735 3.291.699 2.585-2.138-1.157-4.651-4.262-9.644-8.209-13.203-5.077-4.578-43.769-27.883-44.749-28.296-2.716-1.143-8.983-1.143-13.006.65-10.111 1.653-91.14 22.463-127.531 36.024Z"/></g><path d="m724.873 139-18 33.768s-2.983 5.749 2.08 17.645c8.898 21.13 36.026 47.487 53.033 75.762 17.007 28.275 26.654 44.77 31.71 65.13 2.609 13.688 3.55 26.501-2.363 53.036-3.142 16.291-5.913 29.373-19.245 43.929 8.506 30.663 24.217 48.732 24.217 62.218-2.88 13.025-4.538 31.733-4.972 56.123l39.118 4.375c5.344-8.983 1.97-18.05 19.9-34.855 0-23.497 3.598-49.979 5.172-66.153 0 0 9.789-59.35-3.629-124.2-26.363-83.555-42.186-105.333-71.3-143.55-15.96-21.986-27.066-28.522-27.066-28.522-8.551-7.228-18.103-12.13-28.655-14.706Z" stroke="#000" fill="#000"/><path d="M848.228 448.788c-.4 3.94-.83 7.872-1.297 12.146-1.643 15.037-3.726 34.223-3.953 52.07-11.837 11.787-14.187 20.1-16.244 27.217-.282.975-.544 1.924-.842 2.855l-27.014-3.02c.582-20.518 2.11-36.517 4.647-47.988.05-.228.102-.458.155-.688.012-.3.018-.597.018-.892 0-7.578-4.024-16.544-9.665-27.887-4.408-8.864-9.703-19.455-13.72-32.533 12.074-14.476 15.09-27.805 18.262-44.244 6.218-27.95 5.135-41.46 2.385-55.89-5.294-21.36-15.106-38.4-32.63-67.534-7.838-13.032-17.768-25.676-27.155-37.6-10.694-13.581-20.727-26.124-25.402-37.227-3.097-7.276-2.348-11.341-2.331-11.432l15.137-28.396c7.3 2.512 14.017 6.37 20.162 11.564l.508.433c.515.292 10.636 6.519 25.35 26.79 28.718 37.699 44.25 59.149 70.126 141.077 13.021 63.317 3.503 121.179 3.503 121.179Z" stroke="#444" fill="#444"/><path d="M738.878 155.527s-5.928 6.22-5.928 10.604c3.418 21.966 3.418 21.966 9.777 36.622l42.938 45.001-8.792-37.201 26.728 21.743c-14.233-27.256-39.521-59.155-64.723-76.769Z" stroke="#777" fill="#777"/><path d="M189.341 564.822c1.264-16.386-3.107-31.783-13.114-46.19 0 0-6.876-80.287-10.195-128.72 0 0-3.003-73.106 49.186-162.892 35.384-53.08 74.033-83.748 112.067-108.74 35.438-21.466 73.616-42.152 137.12-50.72 0 0 147.736-13.149 206.947 36.896 0 0 54.275 8.68 58.447 36.636 0 0-.636 15.937-19.956 35.363-9.091 7.627-32.522 12.583-32.522 12.583-64.751 3.028-89.309 5.98-133.27 4.794-65.452-1.766-74.079 4.53-96.151 4.53-8.119 0-20.65 1.75-24.46 5.612 0 0 2.252-12.198 14.235-17.084 0 0-11.313-2.71-52.948 17.084-.32 0-24.927 6.604-38.048 4.887 0 0 17.563-9.727 22.453-23.931 0 0-59.898 26.844-93.587 57.885-33.689 31.04-52.466 84.48-54.642 120.977 0 0-.686 22.04 8.94 45.742 6.416 15.802 10.858 27.26 13.326 34.372l-22.266 54.43 8.94 60.53-40.502 5.956Z" stroke="#000" fill="#000" stroke-linecap="round" stroke-linejoin="round"/><path d="M195.69 557.678c-.312-14.46-4.784-28.196-13.475-41.194-.983-11.536-7.004-82.572-10.047-126.953-.077-2.446-1.859-73.005 48.262-159.346 34.773-52.123 72.764-82.258 110.133-106.831 34.806-21.081 72.295-41.43 134.626-49.862 4.939-.445 145.442-12.627 202.377 35.494.446.377.889.76 1.328 1.143 1.074.138 1.668.231 1.668.231s22.8 3.601 39.162 13.858c6.78 4.25 12.69 9.641 14.083 16.942-.354 2.555-2.817 15.335-17.917 30.612-7.7 6.267-25.912 10.33-29.159 11.017-19.02.892-34.57 1.776-48.168 2.55-32.271 1.836-53.47 3.047-84.211 2.218-43.422-1.172-62.146 1.17-76.18 2.918-7.036.876-12.832 1.611-20.172 1.611-2.566 0-5.458.198-8.408.572 9.67-6.58 26.9-15.65 51.688-27.21-17.394 2.827-34.623 7.407-51.688 13.738-16.649 3.603-39.856 11.289-56.828 18.827-2.81.68-9.762 2.42-17.353 3.632 4.404-5.493 4.86-8.155 11.107-16.306a86.881 86.881 0 0 0 10.405-17.46l-20.23 11.307s-60.968 27.387-95.271 58.994c-34.86 32.12-54.38 87.39-56.633 125.175-.008.175-.772 23.427 9.384 48.436 5.746 14.15 9.897 24.786 12.451 31.91l-22.026 53.843 8.29 56.134-27.198 4Z" fill="#444"/><path d="M667.566 108.986c.446.377.889.76 1.328 1.143l1.835.259c2.096.35 23.45 4.086 38.995 13.83 6.633 4.157 12.433 9.408 13.986 16.469l.097.473c-2.003 8.677-9.524 17.042-11.28 18.905l-.484.498c-.872.838-6.637 6.032-16.9 7.2l-1.666.172c-11.8 1.257-33.039 4.862-45.683-.114-1.777-6.033 6.467-10.307 9.523-24.133l-1.554.983c-5.16 3.223-22.404 13.671-40.045 20.724l-2.326.908c-4.134 1.547-19.99 7.042-35.632 6.654-12.126-.3-25.653-3.29-40.58-8.968 10.477-3.298 22.582-9.031 36.316-17.2 13.321-8.226 22.795-15.902 28.421-23.03l-2.312.535c-21.395 4.991-37.698 10.258-48.908 15.8l-.595.297c-11.62 5.85-29.893 12.535-54.822 20.057 11.188-12.69 25.155-23.56 41.9-32.61 21.002-9.3 39.768-16.117 56.298-20.454-16.319-2.165-35.085-1.615-56.297 1.652-30.618 5.648-43.218 16.157-53.208 21.725-13.408 7.793-22.945 7.793-39.805 17.233l.376-.987c2.241-5.801 5.813-13.012 22.164-24.778l1.149-.82c20.289-14.58 49.16-21.325 49.16-21.325l-1.198.173c-17.465 2.456-20.914.126-43.69 8.217l-1.564.562c-24.477 8.862-21.62 8.959-26.254 10.214l-.143.038c-4.838 1.293-28.266 10.165-35.245 10.165 5.9-3.795 12.245-8.983 19.036-15.564-16.73 2.258-31.254 6.223-43.572 11.896l-.968.451a240.62 240.62 0 0 0-37.685 21.758l.565-.763c9.432-12.573 28.585-29.866 28.585-29.866l-3.177 1.944c-33.31 20.276-37.068 19.13-69.362 41.14l-1.753 1.815c-27.977 28.886-24.193 20.757-43.953 43.75-3.074 13.261-12.312 22.18-12.312 22.18l-.674.555c-10.82 9.032-13.075 15.754-38.326 56.294-25.767 41.368-32.335 114.216-32.335 114.216 0-8.085.264-15.922.78-23.534l-.216 1.651c-.82 6.424-1.134 10.645-1.388 12.155l-.03-1.165c-.074-9.805 1.179-77.02 48.292-158.181 34.773-52.123 72.764-82.258 110.133-106.831l2.092-1.264c34.223-20.626 71.45-40.334 132.534-48.598l1.23-.105c14.815-1.218 146.49-10.598 201.147 35.6Z" stroke="#777" fill="#777"/><path d="M538.5 836.522c-6.6.379-23.025 1.23-36.5 1.891-28.397 1.393-31 1.691-31 3.547 0 2.395 9.235 9.69 17 13.429 6.533 3.146 8.64 3.656 16.345 3.964 10.43.416 16.443-1.256 32.155-8.943 11.029-5.396 12.287-6.122 17.751-10.248 4.273-3.226 4.085-4.738-.56-4.495-1.755.092-8.591.477-15.191.855" fill="#DA9E8E"/><path d="M379.452 777.5c1.45 1.054 30.286 15.767 44.048 21.759 13.891 6.048 25.623 9.403 36 10.295 13.622 1.17 70.89 1.136 82-.05a5582.38 5582.38 0 0 1 19.5-2.034c5.775-.591 12.975-1.776 16-2.634 8.118-2.3 28.825-9.225 34-11.371 16.729-6.933 33.128-12.965 35.252-12.965 3.104 0 5.005-2.159 4.575-5.195-.433-3.053 2.347-3.063-63.327.233-10.45.524-26.875 1.397-36.5 1.938-22.604 1.273-90.298 1.288-109 .025-25.601-1.73-39.265-3.14-49.358-5.093-11.813-2.286-14.028-2.353-15.589-.472-1.436 1.731.949 4.51 2.399 5.564Z" fill="#000"/><path d="M420.454 789.478c19.069 8.949 29.406 11.924 45.708 13.155 28.932 2.184 89.972-.209 104.889-4.113 9.351-2.447 43.646-14.355 44.756-15.541.381-.407-2.457-.467-6.307-.134-15.532 1.343-61.181 2.152-118 2.09-55.808-.061-78.203-.88-84.038-3.072-1.74-.654-1.807-.546-.59.95.755.928 7.747 3.927 13.582 6.665Z" fill="#BBCDD8"/><path d="m435 784.562.573 3.226c1.347 7.58 2.664 8.979 11.122 11.823 7.933 2.67 8.9 3.744 54.019 3.851 30.936.075 59.614-2.853 62.098-3.191 9.79-1.332 17.631-6.718 19.282-10.567 1.318-3.075 2.443-5.51 2.138-5.852-.203-.23-49.947.007-149.232.71Z" fill="#FFF"/><path d="M478.5 597.62c-2.817 2.18-7.378 4.833-10.135 8.183-5.349 6.498-6.95 10.684-6.185 16.166.715 5.13 9.311 5.396 19.812.611 10.171-4.633 21.71-4.915 34.505-.844C530.15 626.08 542 625.155 542 619.745c0-2.322-23.001-25.516-27.873-28.107-6.14-3.264-15.179-3.52-23.119-.652-4.063 1.467-9.691 4.452-12.509 6.633ZM447 686.3c0 8.733 8.338 17.335 24.367 25.523 9.473 4.838 12.1 5.5 23.934 6.026 10.491.467 15.711-.08 24.759-2.595 21.141-5.876 41.502-17.897 47.345-27.955 3.144-5.414 1.732-8.102-5.05-9.616-8.152-1.821-16.263.616-27.9 8.38-13.405 8.943-21.017 11.494-34.298 11.494-11.15 0-15.081-1.592-26.325-10.663-7.231-5.834-14.831-9.894-18.517-9.894-1.042 0-4.683.73-6.901 3.79 0 0-1.414 1.329-1.414 5.51Z" fill="#DA9E8E"/><path d="M562.203 626.936a4.5 4.5 0 0 1 5.847 2.512l.453 1.11c.952 2.28 1.945 4.274 4.147 8.36l3.437 6.335c3.109 5.783 4.85 9.458 6.333 13.637 2.17 6.115 3.04 11.828 2.397 17.5l-.073.587-.038.294-.078.287c-2.752 10.223-7.447 16.92-14.56 20.798-6.043 3.295-13.31 4.445-24.288 4.445a4.5 4.5 0 1 1 0-9l1.132-.005c18.074-.153 25-4.071 28.906-18.14l.04-.149.007-.052c.902-7.543-1.426-14.303-8.234-26.919l-2.613-4.809c-2.963-5.48-3.995-7.605-5.328-10.944a4.5 4.5 0 0 1 2.513-5.847Z" fill="#000"/><path d="M449.164 682.54c3.438-3.038 7.733-3.812 12.24-2.309a4.5 4.5 0 0 1 2.507 2.08c9.571 17.193 24.432 24.099 38.37 22.26a4.5 4.5 0 0 1 1.026-.016c10.225 1 18.241-2.478 27.058-10.128l.457-.4c1.78-1.568 7.195-6.716 7.634-7.116 3.067-2.799 5.278-4.402 7.703-5.248a4.5 4.5 0 0 1 1.482-.25c2.98 0 5.995.673 9.02 1.988a4.5 4.5 0 1 1-3.587 8.254c-1.518-.66-2.957-1.05-4.327-1.187l-.252-.022-.027.016c-.82.451-1.922 1.289-3.392 2.598l-.553.499c-.32.292-5.815 5.516-7.752 7.222-10.374 9.14-20.421 13.753-33.157 12.832l-.67-.054-.012.002c-16.644 1.985-34.118-5.885-45.495-24.49l-.356-.591c-.685-.005-1.242.219-1.803.674l-.153.13a4.5 4.5 0 0 1-5.96-6.744Z" fill="#000"/><path d="M468.973 594.98a4.5 4.5 0 0 1 3.048 5.586l-.427 1.44c-6.492 21.651-13.357 34.623-21.474 39.175l-.328.178-.318.253a51.16 51.16 0 0 0-3.56 3.14l-.547.54c-4.855 4.862-7.94 10.013-9.642 15.124-.583 1.751-.953 3.36-1.156 4.778-.054.38-.092.717-.116 1.01l-.03.465c0 10.412 3.333 18.001 9.058 23.056 4.277 3.777 9.79 5.89 14.115 6.012l.39.005a4.5 4.5 0 1 1 0 9c-6.556 0-14.396-2.915-20.462-8.27-7.685-6.786-12.101-16.841-12.101-29.803l.005-.323c.019-.586.086-1.402.232-2.423.276-1.938.768-4.071 1.526-6.35 2.13-6.4 5.94-12.76 11.813-18.64a59.683 59.683 0 0 1 4.831-4.332l.75-.594.37-.289.423-.206c5.538-2.704 11.886-14.634 18.014-35.484a4.5 4.5 0 0 1 5.586-3.049Z" fill="#000"/><g fill="#FFF"><path d="M672.5 509.018c-2.2.479-9.175 1.39-15.5 2.023-6.325.633-25.995 4.257-28.195 4.712-2.2.456-18.379 6.33-22.768 8.556-4.39 2.225-13.187 8.69-15.421 12.99-1.23 2.365-4.001 7.821-4.51 8.135-.509.315-1.488 3.72-2.175 7.567-1.732 9.688-.221 16.252 5.143 22.346 4.034 4.583 12.706 9.494 20.426 11.567 2.509.674 17.804 1.077 41.04 1.08 39.884.006 42.988-.31 53.788-5.489 8.335-3.997 22.268-16.253 26.301-23.135 2.81-4.795 4.888-19.064 3.841-26.37-1.704-11.884-12.441-19.966-30.687-23.097-5.646-.97-16.074-1.264-31.283-.885ZM314.259 509.9c-1.782.055-7.269 1.616-12.194 3.47-10.183 3.832-14.069 7.217-18.37 16-7.358 15.026 1.092 32.038 24.415 49.157 12.529 9.196 14.328 9.473 61.536 9.473 20.4.145 32.595-.076 36.585-.662 3.99-.586 6.554-1.332 7.692-2.24 11.423-4.648 18.398-11.152 20.112-18.754 1.409-6.248-.573-19.046-3.68-23.757-4.769-7.23-14.458-16.043-20.855-18.968-3.3-1.509-7.625-3.593-9.61-4.631-1.986-1.038-6.711-2.404-10.5-3.036-3.79-.632-10.04-1.821-13.89-2.641-15.993-3.408-25.75-4.634-39-4.901-7.7-.155-15.125.094-16.5.554-1.375.46-3.958.881-5.741.936Z"/></g><g transform="translate(319 511)"><ellipse fill="#321A04" cx="42" cy="37.5" rx="42" ry="37.5"/><ellipse fill="#AA6459" cx="42.5" cy="37.5" rx="36.5" ry="32.5"/><path d="M42.5 5c5.781 0 11.248 1.197 16.106 3.327l12.141 8.589C75.905 22.521 79 29.689 79 37.5c0 2.17-.239 4.291-.695 6.343-2.13.75-4.42 1.157-6.805 1.157-6.254 0-11.853-2.8-15.614-7.215.076-.585.114-1.18.114-1.785l-.003-.25c.101.02.189-.11.266-.35l-10.23-12.81A13.954 13.954 0 0 0 42 22c-7.396 0-13.453 5.735-13.965 13.001C25.271 37.483 21.57 39 17.5 39c-4.466 0-8.49-1.828-11.319-4.752C8.013 17.825 23.575 5 42.5 5Z" fill="#6C2E21"/><circle fill="#321A04" cx="42" cy="36" r="14"/><circle fill="#FFF" cx="58.5" cy="23.5" r="12.5"/></g><g transform="translate(615 512)"><ellipse fill="#321A04" cx="42" cy="37.5" rx="42" ry="37.5"/><ellipse fill="#AA6459" cx="42.5" cy="37.5" rx="36.5" ry="32.5"/><path d="M42.5 5c5.783 0 11.248 1.197 16.106 3.327 4.075 1.215 7.832 3.691 11.27 7.428 5.158 5.605 6.397 8.77 8.43 14.727.553 2.203.553 2.844.553 4.917-1.828 1.419-4.87 3.134-11.124 3.134-6.254 0-9.798-1.033-11.654-3.134L46.033 22.591A13.954 13.954 0 0 0 42 22c-7.396 0-13.453 5.735-13.965 13.001-4.929 4.818-11.211 8.026-21.473 8.026C2.55 19.36 23.662 5 42.5 5Z" fill="#6C2E21"/><circle fill="#321A04" cx="42" cy="36" r="14"/><circle fill="#FFF" cx="58.5" cy="23.5" r="12.5"/></g><g fill="#000"><path d="M600.34 527.277c-4.996 2.15-14.47 15.479-13.245 16.704.255.254 3.439-1.12 7.077-3.05 10.27-5.501 26.908-12.515 50.754-13.335 9.395-1.413 56.27-.797 62.5.82 12.513 3.25 19.63 8.459 23.95 17.529l2.399 5.033 1.075-2.815c1.694-4.433 1.285-16.623-.7-20.886-2.486-5.338-8.8-11.688-13.716-13.796-9.103-3.902-16.63-5.094-34.008-5.388-9.35-.158-19.461-.11-22.47.109-1.508.109-13.627 1.271-27.273 4.22-13.59 2.938-28.694 7.648-36.343 14.855ZM304.667 511.498c-10.119 1.867-17.156 7.784-22.159 18.633-1.467 3.18-1.755 5.544-1.327 10.897.706 8.847 1.504 9.965 3.677 5.157 5.758-12.735 22.77-20.599 44.564-20.599 10.738 0 52.55 2.961 56.919 4.03 20.002 4.899 23.542 5.594 33.48 9.663 1.394.427 4.239 1.85 6.32 3.16 2.081 1.312 4.021 2.384 4.311 2.384 2.039 0-2.016-8.707-5.527-11.868-7.632-8.469-24.811-17.359-47.208-20.952-24.095-4.296-24.92-4.36-46.668-3.688-10.044.311-19.474 1.148-26.382 3.183Z"/></g><path d="M683.726 488.002c48.546-.055 57.216 1.025 91.522 11.4 35.844 10.842 34.76 9.328 30.91 43.175l-1.62 14.249-6.018 3.806c-8.747 5.533-12.006 9.54-15.957 19.621-4.364 11.132-11.975 21.676-19.324 26.767-15.878 11.003-106.316 14.89-146.308 6.289-20.784-4.47-42.471-10.255-49.346-13.164-7.805-3.302-11.379-8.51-20.858-30.401-4.726-10.914-10.411-22.05-12.633-24.746-4.414-5.356-11.101-7.874-20.947-7.886-14.74-.02-20.66 6.124-32.705 33.939-4.693 10.837-10.265 21.558-12.382 23.823-4.65 4.979-22.685 10.95-53.545 17.728-20.835 4.577-21.221 4.606-62.893 4.666-41.705.061-64.819-1.87-80.071-6.689-9.63-3.043-21.968-17.519-26.94-31.61-2.594-7.35-9.078-14.65-16.968-19.1-4.391-2.478-5.432-3.902-5.474-7.491-.028-2.438-.632-10.93-1.34-18.871-1.802-20.17-1.274-21.921 7.813-25.939 10.137-4.483 35.87-12.154 54.304-16.192 14.641-3.206 17.133-3.306 70.122-2.803 41.97.397 57.16 1.028 64.339 2.673 5.169 1.185 13.627 2.637 18.796 3.225 5.169.59 14.277 2.671 20.241 4.626 18.573 6.086 37.97 9.096 58.553 9.083 17.688-.012 21.103-.528 57.836-8.736 21.47-4.797 45.543-9.324 53.495-10.059 7.952-.734 33.782-1.357 57.398-1.383Zm-33.835 14.016c-4.598.385-12.023 1.384-16.5 2.22-4.477.836-13.99 2.444-21.14 3.574-17.9 2.83-29.163 4.946-34.593 6.502-17.686 5.07-22.47 14.244-20.088 38.518 2.126 21.65 6.854 29.75 22.112 37.883 13.77 7.338 31.31 11.324 66.57 15.128 10.912 1.177 54.042 1.174 64.5-.005 21.716-2.448 38.574-6.097 42.524-9.204 3.597-2.83 7.737-9.238 11.45-17.722 4.4-10.056 6.564-18.302 8.616-32.83 1.996-14.14 1.326-18.03-3.98-23.1-4.186-3.998-14.562-9.46-23.11-12.168-3.85-1.219-8.35-2.798-10-3.508-12.229-5.265-55.197-7.896-86.36-5.288Zm-336.983.11c-22.827 3.118-53.164 14.966-57.841 22.588-4.83 7.871-5.285 15.39-1.752 28.921 5.346 20.472 11.723 34.796 18.378 41.285 3.368 3.282 4.838 3.856 15.715 6.134 22.849 4.785 25.538 5.072 57.506 5.081h3.89c30.382-.007 32.946-.227 58.485-4.15 22.777-3.498 38.508-9.276 49.38-18.136 8.01-6.529 12.27-19.832 12.4-38.723.155-22.566-4.81-27.92-30.661-33.066a603.443 603.443 0 0 1-13.5-2.876c-3.575-.816-11.45-2.185-17.5-3.043l-21.915-3.108c-15.708-2.228-58.966-2.77-72.585-.908Z" fill="#000"/><g opacity=".2" fill="#FFF"><path d="m660.025 501.368-31.297 102.368-1.657-.228c-22.96-3.202-36.38-6.926-47.389-12.793-15.105-8.052-19.89-16.07-22.047-37.237l-.065-.646c-2.359-24.031 2.307-33.264 19.561-38.365l.527-.153c5.355-1.534 16.381-3.614 33.851-6.384l4.01-.64c6.559-1.062 14.05-2.338 17.872-3.052 4.477-.836 11.902-1.835 16.5-2.22 3.265-.273 6.66-.489 10.134-.65ZM312.908 502.127l.694-.09c7.537-.921 22.746-1.204 37.723-.946l-30.053 104.802-1.265-.048c-10.991-.45-17.272-1.59-31.011-4.457l-3.465-.728c-9.185-1.961-10.674-2.654-13.838-5.738-6.655-6.489-13.032-20.813-18.378-41.285-3.533-13.532-3.078-21.05 1.752-28.92 4.677-7.623 35.014-19.47 57.84-22.59Z"/></g></g></svg>